<svg width="500" height="500" viewBox="0 0 500 500" fill="none" xmlns="http://www.w3.org/2000/svg">
<g clip-path="url(#clip0)">
<path opacity="0.1" d="M290.553 137.427C258.507 136.308 227.988 125.973 198.862 114.653C169.735 103.333 140.848 90.7893 109.569 84.7931C89.4286 80.9359 66.42 80.3936 50.2102 91.1842C34.6123 101.563 29.5706 119.482 26.8632 136.104C24.8239 148.612 23.6264 161.781 29.2105 173.487C33.0893 181.618 39.975 188.451 44.739 196.239C61.3219 223.331 49.6071 256.744 31.6402 283.202C23.2142 295.611 13.4433 307.451 6.94376 320.663C0.444244 333.875 -2.56254 349.013 3.12562 362.489C8.76606 375.844 22.1946 385.88 36.7469 392.934C66.3028 407.252 101.13 411.37 135.09 413.696C210.268 418.837 285.846 416.611 361.224 414.381C389.118 413.557 417.138 412.719 444.576 408.407C459.819 406.012 475.551 402.211 486.615 393.03C500.66 381.38 504.139 361.652 494.729 347.039C478.944 322.533 435.287 316.45 424.262 290.148C418.188 275.674 424.427 259.547 433.252 246.123C452.187 217.322 483.921 192.057 485.595 159.134C486.741 136.525 471.486 113.885 447.896 103.164C423.164 91.9521 388.888 93.3622 370.643 111.924C351.861 131.058 318.851 138.412 290.553 137.427Z" fill="#E53E3E"/>
<g opacity="0.5">
<path opacity="0.5" d="M217.389 256.94L202.871 257.239L200.498 260.498V271.757L203.461 273.831H217.389L220.352 270.572V259.903L217.389 256.94Z" fill="#E53E3E"/>
<path opacity="0.2" d="M217.084 258.718C217.084 258.718 203.751 260.792 202.566 258.718L202.866 257.238L217.084 256.926V258.718Z" fill="white"/>
<path opacity="0.5" d="M218.573 289.532L220.942 291.905V303.186L218.573 305.52C218.573 305.52 209.982 308.484 204.35 306.111L201.682 303.447V292.166L204.055 289.497L218.573 289.532Z" fill="#E53E3E"/>
<path opacity="0.2" d="M217.98 292.2C217.98 292.2 207.61 294.569 204.057 292.2V289.532H218.574L217.98 292.2Z" fill="white"/>
<path opacity="0.5" d="M212.943 273.752V289.779C212.909 290.414 212.626 291.01 212.154 291.436C211.683 291.862 211.061 292.084 210.427 292.053V292.053C209.792 292.084 209.171 291.862 208.699 291.436C208.227 291.01 207.944 290.414 207.91 289.779V273.752C207.91 272.39 209.212 271.335 210.722 271.491C211.306 271.527 211.856 271.778 212.266 272.196C212.676 272.613 212.917 273.167 212.943 273.752V273.752Z" fill="#E53E3E"/>
<path opacity="0.5" d="M240.641 257.399L226.123 257.694L223.75 260.952V272.212L226.713 274.286H240.641L243.604 271.027V260.358L240.641 257.399Z" fill="#E53E3E"/>
<path opacity="0.2" d="M240.342 259.173C240.342 259.173 227.009 261.247 225.824 259.173L226.119 257.694L240.342 257.399V259.173Z" fill="white"/>
<path opacity="0.5" d="M241.817 289.988L244.186 292.361V303.642L241.817 305.989C241.817 305.989 233.222 308.952 227.594 306.579L224.926 303.915V292.656L227.299 289.988H241.817Z" fill="#E53E3E"/>
<path opacity="0.2" d="M241.23 292.656C241.23 292.656 230.86 295.025 227.307 292.656V289.988H241.816L241.23 292.656Z" fill="white"/>
<path opacity="0.5" d="M236.176 274.207V290.235C236.141 290.869 235.857 291.464 235.386 291.89C234.915 292.316 234.294 292.538 233.66 292.508V292.508C233.024 292.539 232.403 292.317 231.93 291.891C231.458 291.465 231.173 290.87 231.139 290.235V274.207C231.139 272.845 232.44 271.791 233.955 271.947C234.539 271.983 235.089 272.233 235.499 272.651C235.909 273.068 236.15 273.623 236.176 274.207V274.207Z" fill="#E53E3E"/>
<path opacity="0.5" d="M270.24 265.968L258.286 266.215L256.334 268.897V278.164L258.772 279.874H270.24L272.678 277.188V268.406L270.24 265.968Z" fill="#E53E3E"/>
<path opacity="0.2" d="M269.994 267.435C269.994 267.435 259.021 269.14 258.045 267.435L258.288 266.215L270.003 265.968L269.994 267.435Z" fill="white"/>
<path opacity="0.5" d="M271.211 292.799L273.163 294.752V304.019L271.211 305.972C271.211 305.972 264.139 308.41 259.496 306.458L257.301 304.262V294.995L259.253 292.799H271.211Z" fill="#E53E3E"/>
<path opacity="0.2" d="M270.725 294.995C270.725 294.995 262.186 296.947 259.262 294.995V292.799H271.211L270.725 294.995Z" fill="white"/>
<path opacity="0.5" d="M266.579 279.809V293.003C266.551 293.526 266.317 294.016 265.928 294.366C265.54 294.717 265.028 294.899 264.505 294.873V294.873C263.983 294.899 263.472 294.717 263.084 294.366C262.696 294.016 262.462 293.525 262.436 293.003V279.809C262.452 279.53 262.527 279.257 262.655 279.009C262.783 278.76 262.962 278.541 263.18 278.366C263.397 278.191 263.65 278.063 263.92 277.991C264.19 277.919 264.472 277.904 264.748 277.947C265.229 277.977 265.682 278.183 266.02 278.527C266.359 278.871 266.558 279.327 266.579 279.809Z" fill="#E53E3E"/>
<path opacity="0.5" d="M289.378 266.345L277.425 266.588L275.477 269.27V278.542L277.915 280.247H289.378L291.816 277.566V268.784L289.378 266.345Z" fill="#E53E3E"/>
<path opacity="0.2" d="M289.135 267.808C289.135 267.808 278.158 269.517 277.182 267.808L277.425 266.588L289.139 266.345L289.135 267.808Z" fill="white"/>
<path opacity="0.5" d="M290.355 293.177L292.303 295.125V304.393L290.355 306.345C290.355 306.345 283.278 308.783 278.64 306.835L276.449 304.653V295.372L278.402 293.177H290.355Z" fill="#E53E3E"/>
<path opacity="0.2" d="M289.863 295.372C289.863 295.372 281.329 297.32 278.4 295.372V293.177H290.354L289.863 295.372Z" fill="white"/>
<path opacity="0.5" d="M285.72 280.182V293.372C285.692 293.895 285.458 294.385 285.069 294.735C284.681 295.086 284.169 295.268 283.646 295.242C283.123 295.268 282.612 295.086 282.223 294.735C281.834 294.385 281.6 293.895 281.572 293.372V280.182C281.572 279.063 282.657 278.195 283.889 278.325C284.37 278.353 284.823 278.559 285.161 278.902C285.499 279.245 285.698 279.701 285.72 280.182V280.182Z" fill="#E53E3E"/>
</g>
<path d="M455.285 314.228C454.352 312.541 452.608 311.43 450.773 310.918C448.916 310.471 446.995 310.351 445.097 310.562C442.031 310.78 438.991 311.281 436.016 312.059C434.172 312.545 432.259 313.196 431.014 314.662C430.979 314.706 430.94 314.758 430.901 314.801C428.996 315.3 427.104 316.068 425.26 316.693C423.41 317.307 421.527 317.818 419.62 318.224C422.115 316.806 424.545 315.304 426.601 313.3C427.573 312.356 428.446 311.315 429.204 310.193C430.614 310.597 432.093 310.696 433.543 310.484C436.481 309.981 438.854 307.881 441.062 305.833L448.165 299.299C449.297 298.257 450.447 297.19 451.202 295.827C452.222 293.931 452.313 291.675 452.339 289.51C452.374 286.534 452.339 283.557 452.252 280.585L454.5 282.321C454.158 278.655 454.84 274.966 456.469 271.665C457.25 270.09 458.274 268.523 458.296 266.758C458.331 264.033 455.988 261.889 453.588 260.683C451.189 259.477 448.49 258.705 446.525 256.852C443.601 254.097 443.054 249.702 441.609 245.927C440.752 243.86 439.737 241.863 438.572 239.952L435.76 235.05C434.346 232.466 432.77 229.975 431.04 227.591C428.115 223.734 424.432 220.554 420.774 217.408L401.753 201.02C397.128 197.033 392.485 193.041 387.483 189.553C377.334 182.476 365.884 177.617 354.508 172.805C351.644 171.59 348.663 170.358 345.565 170.506C343.232 170.657 341.021 171.603 339.3 173.187C337.67 172.692 336.075 172.086 334.528 171.373L334.406 171.317C334.441 171.061 334.48 170.809 334.506 170.553C334.545 170.215 334.567 169.877 334.593 169.534C335.449 169.402 336.279 169.131 337.048 168.731C337.439 168.547 337.784 168.279 338.059 167.946C338.409 167.366 338.588 166.7 338.576 166.024C338.923 161.49 339.27 156.912 338.897 152.4C338.524 147.888 337.391 143.319 334.992 139.483C334.25 138.294 333.321 137.136 332.033 136.62C330.297 135.925 328.288 136.572 326.436 136.26C323.229 135.717 321.229 132.58 318.908 130.268C313.037 124.415 302.997 123.534 296.22 128.272C293.652 130.072 291.595 132.515 289.304 134.667C287.013 136.819 284.328 138.767 281.234 139.188C280.664 139.212 280.106 139.36 279.598 139.622C278.965 140.021 278.679 140.789 278.436 141.501C277.568 143.957 276.735 146.477 276.47 149.046C276.44 148.89 276.414 148.734 276.388 148.577C276.27 149.529 276.245 150.489 276.314 151.445C276.401 152.664 276.753 153.849 277.347 154.916C277.84 155.931 278.683 156.735 279.72 157.181C280.454 157.441 281.228 157.566 282.006 157.55H282.349C282.223 157.884 282.102 158.218 281.989 158.557C281.023 161.424 280.532 164.43 280.536 167.456C280.536 182.641 292.654 194.946 307.614 194.946C309.414 194.937 311.21 194.748 312.972 194.382C313.558 194.569 314.144 194.76 314.708 194.963C315.863 195.345 316.996 195.791 318.101 196.3C318.569 196.521 320.465 197.628 322.756 199.055L322.6 199.38C320.365 201.468 318.726 204.112 317.849 207.042C316.973 209.972 316.892 213.083 317.615 216.054C319.272 222.506 324.709 228.038 324.162 234.681C324.084 235.627 323.884 236.586 324.045 237.523C324.266 238.824 325.147 239.883 326.028 240.846C326.791 241.688 327.585 242.504 328.392 243.302C328.327 247.541 327.959 251.776 327.559 256.002C327.525 256.37 327.516 256.744 327.512 257.121C327.535 258.948 328.198 260.709 329.386 262.098C330.644 263.629 331.148 265.924 330.909 267.972C330.566 270.905 329.121 273.565 328.154 276.346C323.789 288.855 329.152 302.96 326.132 315.877C325.39 319.057 324.14 322.151 323.963 325.422C323.863 327.466 324.184 329.609 323.399 331.497C322.717 333.137 321.299 334.321 319.958 335.471C318.063 337.094 316.218 338.771 314.422 340.504C311.707 339.02 308.905 337.701 306.03 336.556C305.562 336.367 305.084 336.202 304.599 336.061C301.206 332.885 296.928 330.855 292.91 328.52C289.578 326.59 286.402 324.42 283.208 322.251C280.171 320.168 277.069 318.068 274.5 315.391C273.199 314.037 272.04 312.545 270.639 311.308C269.407 310.283 268.102 309.349 266.734 308.514C260.578 304.526 254.709 300.111 249.17 295.302C244.949 291.641 241.495 286.924 236.983 283.64C234.219 281.627 231.004 279.791 227.62 280.169C226.542 280.296 225.497 280.618 224.535 281.119C223.638 280.739 222.679 280.524 221.706 280.485C218.955 280.399 216.43 281.891 214.07 283.327C200.185 291.765 186.084 299.826 171.766 307.512C168.877 309.065 165.97 310.605 163.21 312.384C157.826 315.867 153.055 320.217 149.092 325.258C148.363 326.182 147.443 327.232 146.285 327.093C145.967 327.044 145.662 326.935 145.386 326.772C143.603 325.804 142.51 323.934 141.481 322.16C140.735 320.858 139.928 319.5 138.835 318.511C138.601 317.895 138.289 317.312 137.906 316.775C139.447 312.974 140.774 309.082 142.006 305.165C142.649 303.108 143.269 301.038 144.089 299.043C146.111 294.105 149.335 289.632 150.476 284.408C150.749 283.145 150.91 281.848 151.122 280.572C163.596 278.117 173.012 266.974 173.012 253.594C173.012 238.408 160.889 226.103 145.933 226.103C130.977 226.103 118.859 238.408 118.859 253.594C118.846 258.216 119.995 262.767 122.201 266.829C124.408 270.89 127.6 274.332 131.485 276.837C131.485 276.889 131.485 276.941 131.485 276.988C131.459 277.861 131.373 278.731 131.229 279.592C130.73 282.499 129.493 285.232 128.248 287.883C127.424 289.658 126.599 291.441 125.745 293.211C125.335 293.129 124.937 292.995 124.56 292.812C123.827 292.404 123.506 291.51 123.228 290.721C121.999 287.102 120.495 283.583 118.729 280.195C118.04 278.754 117.165 277.411 116.126 276.199C114.295 274.194 111.787 273.005 109.361 271.804C108.927 271.595 108.524 271.37 108.107 271.17C107.747 270.902 107.37 270.657 106.979 270.437C104.962 269.296 102.723 268.476 101.04 266.879C99.777 265.682 98.9092 264.124 97.729 262.853C95.7636 260.74 93.0518 259.533 90.4182 258.384C89.0471 257.785 87.6066 257.173 86.1097 257.256C85.8988 257.266 85.6887 257.289 85.4806 257.325C85.1207 257.386 84.7643 257.468 84.4133 257.568C84.0716 257.387 83.7489 257.171 83.4501 256.926C81.8404 255.685 81.2156 253.555 80.6906 251.572C79.8228 248.257 78.9073 244.825 79.4454 241.432C79.539 240.847 79.6665 240.267 79.8272 239.696C79.9617 239.475 80.0918 239.263 80.209 239.024C83.6633 237.986 86.8195 236.137 89.4146 233.632C92.0097 231.127 93.9685 228.037 95.1278 224.622C96.2872 221.206 96.6135 217.563 96.0795 213.996C95.5456 210.428 94.1668 207.04 92.0582 204.114C91.837 203.81 91.6244 203.515 91.377 203.22L91.6374 203.077C94.0367 201.611 94.5834 198.105 93.4727 195.493C92.362 192.881 90.0016 191.037 87.611 189.588C87.2639 189.375 86.9124 189.176 86.5566 188.976L86.2529 188.811C85.9839 188.664 85.7193 188.52 85.4502 188.377L85.1335 188.217C84.8168 188.056 84.5001 187.904 84.1833 187.757L84.0401 187.687C83.6453 187.509 83.2505 187.336 82.8513 187.171C82.4652 187.01 82.079 186.863 81.6885 186.737L81.528 186.676C81.1592 186.542 80.786 186.416 80.4129 186.295L80.3305 186.269C77.6014 185.381 74.7563 184.902 71.8872 184.845C69.0786 184.862 66.2793 185.172 63.535 185.77C60.863 186.253 58.2466 187.005 55.7252 188.013C51.5579 189.779 47.884 192.534 45.0213 196.04C44.418 196.085 43.8198 196.184 43.2338 196.335C40.8865 196.929 38.7735 198.239 36.8427 199.723C35.2256 200.912 33.7928 202.333 32.5907 203.94C31.175 206 30.1987 208.329 29.7228 210.783C28.0783 218.475 30.1002 226.402 31.5884 234.134C33.0766 241.866 33.9357 250.292 30.2868 257.23C28.9114 259.833 26.9589 262.093 25.5141 264.649C24.0693 267.204 23.067 270.289 23.9001 273.123C24.911 276.563 28.2389 278.728 29.9744 281.852C32.005 285.492 31.4453 290.382 28.7899 293.567C28.6728 293.706 28.5556 293.845 28.4298 294.001C28.304 294.157 28.1261 294.322 27.9612 294.469C30.699 295.433 33.7492 294.396 36.2049 292.851C38.1689 291.691 39.8344 290.088 41.0687 288.17C44.1709 283.076 42.7782 276.489 43.8716 270.602C45.3077 262.892 51.1043 256.015 50.306 248.209C49.768 242.972 46.349 238.594 43.6633 234.091C41.8781 231.068 40.3818 227.884 39.1943 224.58C39.1466 224.441 39.0989 224.298 39.0468 224.146C38.2615 221.912 37.6584 219.543 38.0619 217.204C38.1995 216.447 38.4267 215.708 38.7388 215.004C38.7388 215.087 38.7388 215.174 38.7388 215.256C38.7916 217.518 39.2945 219.747 40.2183 221.812C42.93 227.452 49.4556 230.056 53.5991 234.629C53.7727 234.82 53.9376 235.015 54.1024 235.214C54.1502 235.267 54.1936 235.323 54.2369 235.379L54.5884 235.813L54.7359 236.017C54.8444 236.169 54.9529 236.321 55.0526 236.477L55.1871 236.672C55.326 236.894 55.4648 237.106 55.595 237.345C56.6493 236.178 57.7384 234.95 58.1636 233.44C58.2026 233.31 58.2286 233.175 58.2547 233.041C58.2894 233.075 58.3198 233.115 58.3545 233.154C58.4369 233.618 58.502 234.082 58.5627 234.551C58.5627 235.22 58.634 235.888 58.7753 236.542C59.1051 240.707 58.8404 244.985 58.5627 249.164C58.4152 251.398 58.9966 254.717 57.5735 256.383L57.5301 256.431C57.4467 256.528 57.3552 256.618 57.2568 256.7V256.7C57.0138 256.952 56.7665 257.199 56.5365 257.46C51.7638 262.84 49.5944 270.476 49.7072 277.791C49.8201 286.117 52.4797 294.183 55.4952 301.928C56.5483 304.755 57.7891 307.509 59.2092 310.172C59.9423 311.609 60.9118 312.913 62.0772 314.029C63.2964 315.109 64.7802 315.821 66.2424 316.515C66.6069 316.688 66.9757 316.858 67.3401 317.036L68.273 317.469L75.3756 320.845C76.6772 322.758 77.9355 324.724 79.2067 326.694C79.389 326.971 79.5668 327.258 79.7534 327.535C81.1418 329.705 82.5389 331.874 83.962 333.983L95.9328 351.711C96.8005 353.013 97.7073 354.314 98.9265 355.278C99.2734 355.55 99.6487 355.784 100.046 355.976C100.248 356.073 100.455 356.159 100.666 356.232C100.404 356.627 100.291 357.102 100.35 357.573C100.51 358.034 100.814 358.431 101.217 358.705C103.925 360.944 106.932 363.304 107.782 366.745C108.385 369.197 107.782 371.821 108.324 374.286C109.318 378.729 113.713 381.423 117.87 383.133C127.185 386.96 137.533 388.43 147.43 386.651C157.327 384.873 166.729 379.74 173.137 371.9C175.107 369.479 176.786 366.836 178.656 364.337C179.958 362.576 181.39 360.896 182.869 359.278C184.466 358.548 186.005 357.698 187.473 356.735C190.601 354.657 193.295 351.989 196.15 349.516C198.281 347.659 200.511 345.906 202.468 343.875C204.225 341.949 205.866 339.921 207.383 337.801C210.854 333.202 214.44 328.694 218.139 324.277C220.118 321.912 222.213 319.504 224.977 318.203L225.103 318.151C225.433 320.094 226.973 321.743 228.053 323.422C232.522 330.364 237.2 337.51 244.107 341.936C247.89 344.357 252.168 345.841 256.438 347.194C267.285 350.622 278.305 353.312 289.335 356.007C289.699 355.312 290.055 354.67 290.454 354.045C290.625 354.226 290.784 354.417 290.931 354.618C290.979 354.688 291.018 354.761 291.066 354.831C290.986 354.846 290.908 354.868 290.831 354.896C290.123 355.226 289.567 355.812 289.274 356.536C288.085 358.918 287.972 361.682 287.916 364.346C287.877 366.949 287.916 369.552 287.916 372.156C287.852 373.127 288 374.101 288.35 375.01C289.191 376.746 291.33 377.392 293.244 377.614C296.567 377.983 299.917 377.67 303.223 377.223C303.414 378.003 303.726 378.748 304.147 379.432C306.004 382.469 309.211 384.473 312.547 385.649C315.884 386.825 319.42 387.294 322.887 387.984C329.043 389.207 335.343 391.164 341.465 389.784C343.908 389.233 346.238 388.166 348.681 387.697C354.273 386.638 360.07 388.782 365.702 387.923C368.422 387.489 370.995 386.404 373.46 385.159C374.702 384.614 375.828 383.836 376.779 382.868C377.681 381.853 378.224 380.412 377.85 379.098C377.638 378.343 377.152 377.701 376.826 376.989C376.39 375.851 376.143 374.649 376.093 373.431C375.64 368.823 374.86 364.253 373.759 359.755C373.729 359.629 373.694 359.499 373.659 359.369C377.915 357.681 381.729 355.03 385.495 352.392L393.596 346.726C396.199 344.891 398.868 343.047 401.792 341.762C406.278 339.793 411.246 339.228 416.136 339.233C418.136 339.233 420.141 339.333 422.132 339.515C421.878 339.792 421.687 340.12 421.572 340.478C421.173 341.719 421.807 343.081 422.748 343.988C423.69 344.895 424.918 345.407 426.024 346.036C429.081 347.757 431.626 350.259 433.4 353.286C434.511 355.191 435.318 357.503 434.615 359.599C433.747 362.228 430.654 364.042 430.831 366.81C430.936 368.442 432.25 369.791 433.747 370.394C435.244 370.997 436.906 370.988 438.52 370.941C441.162 370.858 443.883 370.654 446.247 369.453C447.84 368.641 449.189 367.418 450.512 366.207C451.718 365.101 452.951 363.951 453.636 362.458C454.278 361.053 454.378 359.46 454.408 357.916C454.539 350.644 453.285 343.272 454.73 336.148C455.163 333.979 455.858 331.857 456.226 329.67C456.808 326.199 456.587 322.693 456.365 319.205C456.257 317.487 456.127 315.717 455.285 314.228Z" fill="url(#paint0_linear)"/>
<path opacity="0.06" d="M363.615 213.659C361.91 214.809 361.316 217.031 361.099 219.078C360.175 227.786 363.767 236.408 363.529 245.159C363.338 252.123 360.743 258.765 358.183 265.243C353.818 276.294 351.545 288.295 350.664 300.145C349.783 311.994 348.495 324.333 342.134 334.356C340.689 336.625 339.006 338.734 337.591 341.016C336.107 343.402 334.932 345.962 333.621 348.444C329.761 355.774 324.784 362.459 318.869 368.259C317.134 369.951 315.294 371.592 313.081 372.568C311.655 373.186 310.12 373.514 308.566 373.53C307.011 373.546 305.469 373.252 304.031 372.663C301.063 371.435 298.564 368.667 298.442 365.456C298.334 362.584 300.048 359.994 301.766 357.694C307.589 349.904 314.286 342.805 321.724 336.538C323.074 335.402 324.497 334.226 325.195 332.603C325.981 330.733 325.66 328.611 325.759 326.585C325.92 323.353 327.178 320.285 327.929 317.135C330.966 304.34 325.569 290.369 329.959 277.973C330.936 275.218 332.385 272.585 332.728 269.682C332.971 267.651 332.467 265.382 331.196 263.859C330.005 262.491 329.34 260.744 329.317 258.93C329.317 258.557 329.317 258.188 329.361 257.824C329.89 252.144 330.415 246.439 330.129 240.742C329.842 235.045 328.71 229.318 326.081 224.255C324.718 221.63 322.957 219.174 322.115 216.341C320.761 211.755 322.011 206.795 324.028 202.457C325.603 199.064 327.703 195.831 330.636 193.506C336.086 189.189 344.243 188.69 350.209 192.26C354.608 194.89 357.619 199.311 360.062 203.819C361.815 207.112 363.641 209.902 363.615 213.659Z" fill="black"/>
<path d="M349.152 179.079C348.319 181.327 347.491 183.574 346.666 185.822C346.12 187.297 345.577 188.785 345.013 190.26C342.41 197.059 339.499 203.75 334.943 209.377C335.624 208.535 329.216 204.301 324.491 201.411C322.187 199.992 320.278 198.899 319.809 198.682C318.695 198.179 317.556 197.735 316.395 197.354C314.594 196.747 312.772 196.222 310.971 195.567C306.806 194.061 309.717 191.8 311.5 189.371C317.336 181.413 318.442 170.54 325.068 163.229C327.498 167.846 331.341 171.563 336.036 173.838C336.127 173.886 336.223 173.929 336.318 173.968C340.254 175.808 344.601 176.602 348.671 178.142C348.892 178.224 349.148 178.342 349.222 178.576C349.249 178.747 349.225 178.922 349.152 179.079Z" fill="#A1616A"/>
<path d="M337.826 339.797C335.941 342.497 334.768 345.63 334.415 348.904C334.063 352.178 334.542 355.488 335.808 358.528C336.129 359.377 336.627 360.148 337.271 360.788C338.09 361.428 339.044 361.873 340.06 362.09C348.677 364.541 357.875 364.06 366.701 362.524C369.69 362.064 372.628 361.315 375.474 360.289C379.843 358.619 383.743 355.95 387.596 353.286L395.744 347.672C398.382 345.854 401.042 344.027 403.988 342.752C408.501 340.804 413.499 340.244 418.415 340.248C422.637 340.253 426.85 340.656 430.997 341.45C433.761 341.984 437.072 342.535 439.015 340.517C440.126 339.376 440.456 337.706 440.673 336.131C441.531 330.003 441.515 323.784 440.625 317.661C440.603 317.145 440.416 316.651 440.091 316.25C439.785 315.99 439.412 315.821 439.015 315.76C435.175 314.892 431.323 316.693 427.591 317.93C419.838 320.507 411.512 320.815 403.624 322.936C395.345 325.162 387.57 329.375 379.014 330.23C374.936 330.638 370.84 330.282 366.753 330.373C362.961 330.456 359.424 331.766 355.71 331.922C348.551 332.239 342.325 333.488 337.826 339.797Z" fill="#A1616A"/>
<path opacity="0.06" d="M337.826 339.797C335.941 342.497 334.768 345.63 334.415 348.904C334.063 352.178 334.542 355.488 335.808 358.528C336.129 359.377 336.627 360.148 337.271 360.788C338.09 361.428 339.044 361.873 340.06 362.09C348.677 364.541 357.875 364.06 366.701 362.524C369.69 362.064 372.628 361.315 375.474 360.289C379.843 358.619 383.743 355.95 387.596 353.286L395.744 347.672C398.382 345.854 401.042 344.027 403.988 342.752C408.501 340.804 413.499 340.244 418.415 340.248C422.637 340.253 426.85 340.656 430.997 341.45C433.761 341.984 437.072 342.535 439.015 340.517C440.126 339.376 440.456 337.706 440.673 336.131C441.531 330.003 441.515 323.784 440.625 317.661C440.603 317.145 440.416 316.651 440.091 316.25C439.785 315.99 439.412 315.821 439.015 315.76C435.175 314.892 431.323 316.693 427.591 317.93C419.838 320.507 411.512 320.815 403.624 322.936C395.345 325.162 387.57 329.375 379.014 330.23C374.936 330.638 370.84 330.282 366.753 330.373C362.961 330.456 359.424 331.766 355.71 331.922C348.551 332.239 342.325 333.488 337.826 339.797Z" fill="black"/>
<path d="M344.828 330.625C344.624 331.584 344.442 332.599 344.728 333.536C345.083 334.458 345.683 335.265 346.464 335.87C353.84 342.474 364.379 343.841 374.232 344.913C376.9 345.203 379.616 345.494 382.259 345.012C384.667 344.578 386.914 343.515 389.131 342.465C393.904 340.205 398.703 337.918 402.794 334.595C406.808 331.341 410.027 327.176 414.184 324.108C418.909 320.637 424.718 318.65 428.935 314.563C431.985 311.621 434.011 307.78 434.719 303.603C435.196 300.752 435.04 297.841 434.719 294.969C434.376 291.667 433.825 288.309 432.255 285.384C430.437 282 427.382 279.444 424.158 277.344C417.338 272.91 409.307 270.159 401.163 270.229C389.882 270.329 379.469 276.893 371.373 284.265C362.809 292.072 355.878 301.5 350.98 312.003C348.215 317.951 346.151 324.2 344.828 330.625V330.625Z" fill="#464353"/>
<path opacity="0.06" d="M344.828 330.625C344.624 331.584 344.442 332.599 344.728 333.536C345.083 334.458 345.683 335.265 346.464 335.87C353.84 342.474 364.379 343.841 374.232 344.913C376.9 345.203 379.616 345.494 382.259 345.012C384.667 344.578 386.914 343.515 389.131 342.465C393.904 340.205 398.703 337.918 402.794 334.595C406.808 331.341 410.027 327.176 414.184 324.108C418.909 320.637 424.718 318.65 428.935 314.563C431.985 311.621 434.011 307.78 434.719 303.603C435.196 300.752 435.04 297.841 434.719 294.969C434.376 291.667 433.825 288.309 432.255 285.384C430.437 282 427.382 279.444 424.158 277.344C417.338 272.91 409.307 270.159 401.163 270.229C389.882 270.329 379.469 276.893 371.373 284.265C362.809 292.072 355.878 301.5 350.98 312.003C348.215 317.951 346.151 324.2 344.828 330.625V330.625Z" fill="black"/>
<path d="M363.615 213.659C361.91 214.809 361.316 217.031 361.099 219.078C360.175 227.786 363.767 236.408 363.529 245.159C363.338 252.123 360.743 258.765 358.183 265.243C353.818 276.294 351.545 288.295 350.664 300.145C349.783 311.994 348.495 324.333 342.134 334.356C340.689 336.625 339.006 338.734 337.591 341.016C336.107 343.402 334.932 345.962 333.621 348.444C329.761 355.774 324.784 362.459 318.869 368.259C317.134 369.951 315.294 371.592 313.081 372.568C311.655 373.186 310.12 373.514 308.566 373.53C307.011 373.546 305.469 373.252 304.031 372.663C301.063 371.435 298.564 368.667 298.442 365.456C298.334 362.584 300.048 359.994 301.766 357.694C307.589 349.904 314.286 342.805 321.724 336.538C323.074 335.402 324.497 334.226 325.195 332.603C325.981 330.733 325.66 328.611 325.759 326.585C325.92 323.353 327.178 320.285 327.929 317.135C330.966 304.34 325.569 290.369 329.959 277.973C330.936 275.218 332.385 272.585 332.728 269.682C332.971 267.651 332.467 265.382 331.196 263.859C330.005 262.491 329.34 260.744 329.317 258.93C329.317 258.557 329.317 258.188 329.361 257.824C329.89 252.144 330.415 246.439 330.129 240.742C329.842 235.045 328.71 229.318 326.081 224.255C324.718 221.63 322.957 219.174 322.115 216.341C320.761 211.755 322.011 206.795 324.028 202.457C325.603 199.064 327.703 195.831 330.636 193.506C336.086 189.189 344.243 188.69 350.209 192.26C354.608 194.89 357.619 199.311 360.062 203.819C361.815 207.112 363.641 209.902 363.615 213.659Z" fill="#A1616A"/>
<path d="M339.643 242.807C348.713 242.807 356.065 231.271 356.065 217.039C356.065 202.808 348.713 191.271 339.643 191.271C330.573 191.271 323.221 202.808 323.221 217.039C323.221 231.271 330.573 242.807 339.643 242.807Z" fill="#A1616A"/>
<path d="M297.76 351.694C298.245 352.377 298.574 353.159 298.724 353.984C298.874 354.808 298.841 355.656 298.627 356.467C300.175 357.578 302.057 358.126 303.96 358.02C305.848 357.917 307.705 357.49 309.448 356.757C310.965 356.204 312.401 355.451 313.718 354.518C315.983 352.844 317.623 350.449 318.924 347.967C319.658 346.596 320.282 344.821 319.358 343.589C318.995 343.171 318.553 342.829 318.057 342.582C314.714 340.675 311.233 339.021 307.643 337.632C306.658 337.178 305.587 336.938 304.502 336.929C303.17 337.003 301.96 337.732 300.901 338.547C298.522 340.398 296.603 342.774 295.295 345.489C294.887 346.357 293.655 348.418 294.267 349.312C294.545 349.724 295.569 349.867 296.002 350.128C296.692 350.52 297.291 351.053 297.76 351.694V351.694Z" fill="#FBBEBE"/>
<path opacity="0.03" d="M297.76 351.694C298.245 352.377 298.574 353.159 298.724 353.984C298.874 354.808 298.841 355.656 298.627 356.467C300.175 357.578 302.057 358.126 303.96 358.02C305.848 357.917 307.705 357.49 309.448 356.757C310.965 356.204 312.401 355.451 313.718 354.518C315.983 352.844 317.623 350.449 318.924 347.967C319.658 346.596 320.282 344.821 319.358 343.589C318.995 343.171 318.553 342.829 318.057 342.582C314.714 340.675 311.233 339.021 307.643 337.632C306.658 337.178 305.587 336.938 304.502 336.929C303.17 337.003 301.96 337.732 300.901 338.547C298.522 340.398 296.603 342.774 295.295 345.489C294.887 346.357 293.655 348.418 294.267 349.312C294.545 349.724 295.569 349.867 296.002 350.128C296.692 350.52 297.291 351.053 297.76 351.694V351.694Z" fill="black"/>
<path d="M315.727 341.641C323.068 343.003 329.819 346.553 337.035 348.466C339.955 349.238 342.962 349.768 345.752 350.904C348.541 352.041 351.171 353.985 352.373 356.753C352.881 358.082 353.217 359.47 353.375 360.884C353.687 362.884 353.943 365.118 352.754 366.758C351.5 368.494 349.131 368.876 347.01 369.132C339.382 370.038 331.755 370.95 324.101 371.592C322.551 371.686 321.008 371.87 319.48 372.143C318.222 372.394 316.994 372.776 315.744 373.071C314.126 373.449 312.482 373.687 310.842 373.939C306.646 374.542 302.403 375.145 298.19 374.685C296.268 374.473 294.116 373.852 293.269 372.117C292.918 371.217 292.77 370.251 292.836 369.288C292.814 366.711 292.792 364.138 292.836 361.565C292.875 358.922 293.005 356.18 294.202 353.824C294.499 353.103 295.059 352.521 295.769 352.197C296.205 352.072 296.662 352.031 297.114 352.076C299.37 352.154 301.704 352.249 303.722 353.256C305.323 354.05 306.624 355.373 308.256 356.094C311.345 357.465 315.072 356.48 318.2 357.768C318.929 355.521 318.764 353.247 318.222 350.943C317.68 348.639 316.92 346.379 316.69 344.027C316.681 343.511 316.581 343 316.395 342.517C316.161 342.036 316.239 341.567 315.727 341.641Z" fill="#464353"/>
<path opacity="0.06" d="M315.727 341.641C323.068 343.003 329.819 346.553 337.035 348.466C339.955 349.238 342.962 349.768 345.752 350.904C348.541 352.041 351.171 353.985 352.373 356.753C352.881 358.082 353.217 359.47 353.375 360.884C353.687 362.884 353.943 365.118 352.754 366.758C351.5 368.494 349.131 368.876 347.01 369.132C339.382 370.038 331.755 370.95 324.101 371.592C322.551 371.686 321.008 371.87 319.48 372.143C318.222 372.394 316.994 372.776 315.744 373.071C314.126 373.449 312.482 373.687 310.842 373.939C306.646 374.542 302.403 375.145 298.19 374.685C296.268 374.473 294.116 373.852 293.269 372.117C292.918 371.217 292.77 370.251 292.836 369.288C292.814 366.711 292.792 364.138 292.836 361.565C292.875 358.922 293.005 356.18 294.202 353.824C294.499 353.103 295.059 352.521 295.769 352.197C296.205 352.072 296.662 352.031 297.114 352.076C299.37 352.154 301.704 352.249 303.722 353.256C305.323 354.05 306.624 355.373 308.256 356.094C311.345 357.465 315.072 356.48 318.2 357.768C318.929 355.521 318.764 353.247 318.222 350.943C317.68 348.639 316.92 346.379 316.69 344.027C316.681 343.511 316.581 343 316.395 342.517C316.161 342.036 316.239 341.567 315.727 341.641Z" fill="black"/>
<path d="M70.4934 267.66C69.0139 267.191 67.5864 268.502 66.7577 269.829C63.3127 275.244 63.5947 282.473 66.3499 288.269C67.0054 289.739 67.9095 291.085 69.0226 292.248C70.5151 293.719 72.4372 294.66 74.2291 295.719C79.2012 298.656 83.4624 302.657 86.7075 307.434C88.8292 310.562 90.4996 314.003 92.9077 316.914C98.8345 324.082 108.575 327.327 114.324 334.616C115.699 336.352 116.862 338.365 118.697 339.628C119.788 340.378 121.06 340.823 122.381 340.917C123.701 341.012 125.023 340.752 126.21 340.165C127.396 339.577 128.405 338.684 129.13 337.576C129.856 336.469 130.273 335.188 130.338 333.866C132.573 330.581 134.4 326.954 136.139 323.379C138.714 317.922 140.889 312.285 142.648 306.514C143.294 304.475 143.919 302.422 144.743 300.44C146.778 295.545 150.019 291.116 151.165 285.944C151.625 283.87 151.737 281.713 152.406 279.7C153.004 277.893 154.028 276.256 155.391 274.928C159.903 270.541 162.333 264.15 165.921 258.987C167.379 256.9 168.893 254.817 169.856 252.457C170.819 250.097 171.188 247.394 170.29 245.007C169.392 242.621 167.045 240.694 164.502 240.829C163.364 240.947 162.26 241.286 161.252 241.827C157.748 243.49 154.534 245.705 151.733 248.387C150.508 249.566 149.349 250.812 148.262 252.118C142.96 258.453 138.812 266.141 138.448 274.394C138.326 277.223 138.552 280.36 136.756 282.551C131.801 288.603 130.208 296.925 125.982 303.511C124.026 306.549 121.782 309.694 118.437 311.078C117.943 311.316 117.396 311.424 116.849 311.391C115.513 311.239 114.745 309.833 114.181 308.61C111.977 303.837 109.426 299.233 106.549 294.834C105.412 293.098 104.158 291.319 102.34 290.3C101.099 289.61 99.6588 289.302 98.4917 288.495C96.8646 287.371 96.0142 285.458 95.1682 283.666C92.4261 277.878 88.9543 272.466 84.8375 267.56C82.9545 265.317 80.4727 263 77.5657 263.334C74.7975 263.66 73.1054 266.571 70.4934 267.66Z" fill="#FBBEBE"/>
<path opacity="0.03" d="M70.4934 267.66C69.0139 267.191 67.5864 268.502 66.7577 269.829C63.3127 275.244 63.5947 282.473 66.3499 288.269C67.0054 289.739 67.9095 291.085 69.0226 292.248C70.5151 293.719 72.4372 294.66 74.2291 295.719C79.2012 298.656 83.4624 302.657 86.7075 307.434C88.8292 310.562 90.4996 314.003 92.9077 316.914C98.8345 324.082 108.575 327.327 114.324 334.616C115.699 336.352 116.862 338.365 118.697 339.628C119.788 340.378 121.06 340.823 122.381 340.917C123.701 341.012 125.023 340.752 126.21 340.165C127.396 339.577 128.405 338.684 129.13 337.576C129.856 336.469 130.273 335.188 130.338 333.866C132.573 330.581 134.4 326.954 136.139 323.379C138.714 317.922 140.889 312.285 142.648 306.514C143.294 304.475 143.919 302.422 144.743 300.44C146.778 295.545 150.019 291.116 151.165 285.944C151.625 283.87 151.737 281.713 152.406 279.7C153.004 277.893 154.028 276.256 155.391 274.928C159.903 270.541 162.333 264.15 165.921 258.987C167.379 256.9 168.893 254.817 169.856 252.457C170.819 250.097 171.188 247.394 170.29 245.007C169.392 242.621 167.045 240.694 164.502 240.829C163.364 240.947 162.26 241.286 161.252 241.827C157.748 243.49 154.534 245.705 151.733 248.387C150.508 249.566 149.349 250.812 148.262 252.118C142.96 258.453 138.812 266.141 138.448 274.394C138.326 277.223 138.552 280.36 136.756 282.551C131.801 288.603 130.208 296.925 125.982 303.511C124.026 306.549 121.782 309.694 118.437 311.078C117.943 311.316 117.396 311.424 116.849 311.391C115.513 311.239 114.745 309.833 114.181 308.61C111.977 303.837 109.426 299.233 106.549 294.834C105.412 293.098 104.158 291.319 102.34 290.3C101.099 289.61 99.6588 289.302 98.4917 288.495C96.8646 287.371 96.0142 285.458 95.1682 283.666C92.4261 277.878 88.9543 272.466 84.8375 267.56C82.9545 265.317 80.4727 263 77.5657 263.334C74.7975 263.66 73.1054 266.571 70.4934 267.66Z" fill="black"/>
<path d="M70.191 246.929C76.5075 246.929 81.628 242.308 81.628 236.607C81.628 230.906 76.5075 226.285 70.191 226.285C63.8745 226.285 58.7539 230.906 58.7539 236.607C58.7539 242.308 63.8745 246.929 70.191 246.929Z" fill="#FBBEBE"/>
<path d="M80.9163 238.603C83.1904 238.603 85.0339 236.76 85.0339 234.486C85.0339 232.212 83.1904 230.368 80.9163 230.368C78.6423 230.368 76.7988 232.212 76.7988 234.486C76.7988 236.76 78.6423 238.603 80.9163 238.603Z" fill="#FBBEBE"/>
<path d="M71.6917 236.607C80.3925 236.607 87.4458 234.721 87.4458 232.394C87.4458 230.068 80.3925 228.181 71.6917 228.181C62.9909 228.181 55.9375 230.068 55.9375 232.394C55.9375 234.721 62.9909 236.607 71.6917 236.607Z" fill="#FBBEBE"/>
<path d="M57.6435 231.496C58.0268 232.711 58.3283 233.951 58.546 235.206C57.2232 233.863 56.0772 232.357 55.1357 230.724C54.8819 230.442 54.678 230.12 54.5326 229.769C53.1268 226.498 52.168 223.188 52.168 219.604C52.1676 215.448 53.3292 211.376 55.5214 207.846C57.7136 204.316 60.8492 201.469 64.574 199.627C68.2988 197.785 72.4644 197.021 76.6004 197.422C80.7364 197.822 84.678 199.371 87.9801 201.894C91.2821 204.417 93.813 207.812 95.287 211.697C96.761 215.583 97.1193 219.802 96.3215 223.88C95.5237 227.958 93.6015 231.732 90.7721 234.775C87.9426 237.819 84.3186 240.01 80.3094 241.102C80.9906 238.907 81.9234 236.764 82.0449 234.486C82.1181 233.726 82.008 232.96 81.7239 232.251C81.3431 231.498 80.781 230.851 80.0881 230.368C77.6063 228.472 74.413 227.643 71.289 227.696C68.1615 227.825 65.089 228.562 62.2427 229.865C61.3445 230.251 60.2685 230.772 59.2055 231.128C58.6987 231.303 58.1754 231.427 57.6435 231.496V231.496Z" fill="#FBBEBE"/>
<path d="M114.156 280.256C112.729 282.542 109.679 283.241 106.997 283.037C101.999 282.668 97.4518 280 93.5903 276.789C89.7288 273.578 86.3532 269.847 82.4049 266.758C75.0593 261 66.7852 258.687 57.4395 258.553C59.2661 257.039 58.5936 253.446 58.7411 251.086C59.0622 246.313 59.3659 241.415 58.7411 236.711C58.676 236.204 58.6022 235.705 58.5155 235.206C58.663 235.362 58.8192 235.514 58.9797 235.67C61.759 238.337 65.1814 240.239 68.9139 241.191C72.6464 242.143 76.5618 242.113 80.2789 241.102C80.0398 241.858 79.8528 242.629 79.7192 243.41C79.1812 246.764 80.0836 250.166 80.9731 253.45C81.5024 255.416 82.1315 257.525 83.7499 258.752C84.7999 259.551 86.1232 259.863 87.3685 260.284C89.8507 261.13 92.1418 262.457 94.111 264.189C95.482 265.391 96.7142 266.792 98.1851 267.838C99.5839 268.723 101.057 269.484 102.589 270.111C106.348 271.846 109.899 273.999 113.176 276.529C113.794 276.914 114.275 277.485 114.551 278.16C114.632 278.518 114.639 278.888 114.571 279.249C114.503 279.609 114.362 279.952 114.156 280.256V280.256Z" fill="#FBBEBE"/>
<path d="M139.787 322.294C139.487 324.273 137.674 325.817 136.394 327.353C132.914 331.553 129.387 335.766 125.495 339.61C121.329 343.719 116.756 347.381 112.188 351.043L106.261 355.785C105.53 356.454 104.673 356.97 103.74 357.304C102.647 357.577 101.493 357.439 100.494 356.918C100.097 356.728 99.7204 356.496 99.3707 356.228C98.1429 355.274 97.2404 353.972 96.3596 352.692C92.3506 346.84 88.3372 340.987 84.3195 335.133C82.8877 333.042 81.4819 330.894 80.0848 328.746C79.8982 328.468 79.7203 328.186 79.5338 327.909C78.2582 325.956 76.9869 324.004 75.6809 322.116L68.5393 318.771L67.6021 318.337L66.4957 317.821C65.0248 317.131 63.5323 316.428 62.3088 315.361C61.1371 314.26 60.1615 312.967 59.4235 311.538C57.9944 308.896 56.7449 306.161 55.6834 303.351C52.6463 295.684 49.9736 287.692 49.8607 279.44C49.761 272.181 51.9043 264.632 56.7291 259.304C57.3885 258.571 58.0974 257.883 58.8507 257.247C59.7792 256.47 60.7381 256.015 61.9313 256.184C63.1244 256.353 64.2569 256.527 65.4023 256.722C68.561 257.266 71.695 257.931 74.8045 258.718C77.6073 259.434 80.51 260.25 83.3432 259.681C83.7988 259.59 84.25 259.46 84.7013 259.343C85.0701 259.247 85.4345 259.156 85.812 259.095C86.0215 259.059 86.2331 259.036 86.4455 259.026C87.951 258.948 89.3958 259.551 90.7843 260.145C93.4353 261.282 96.1644 262.48 98.1602 264.571C99.349 265.829 100.221 267.374 101.488 268.558C103.18 270.142 105.436 270.953 107.467 272.086C107.859 272.303 108.237 272.545 108.599 272.81C109.4 273.411 110.128 274.102 110.769 274.871V274.871C113.398 277.974 114.96 282.16 117.863 285.245C120.186 287.71 122.205 290.444 123.876 293.389C124.15 293.88 124.414 294.374 124.675 294.877C125.108 295.715 125.512 296.565 125.885 297.424C125.981 297.646 126.076 297.858 126.163 298.088C126.709 299.388 127.185 300.716 127.59 302.067C128.575 305.343 129.23 308.879 131.417 311.508C132.944 313.335 135.062 314.545 136.845 316.12C137.993 317.093 138.897 318.322 139.483 319.708C139.805 320.53 139.91 321.421 139.787 322.294Z" fill="#FBBEBE"/>
<path opacity="0.06" d="M127.705 296.236C127.208 296.863 126.697 297.482 126.174 298.093C126.087 298.205 125.991 298.314 125.896 298.422C121.329 303.765 116.1 308.505 110.337 312.528C106.77 315.018 103.009 317.227 99.2557 319.431L92.3136 323.496C89.4109 325.201 86.4692 326.919 83.2498 327.9C82.2172 328.208 81.1369 328.455 80.0825 328.746C79.896 328.468 79.7181 328.186 79.5315 327.909C78.2559 325.956 76.9846 324.004 75.6786 322.116L68.537 318.771C72.481 316.278 75.9801 313.143 78.8894 309.495C83.2282 304.145 86.5647 298.045 89.8535 291.983C90.4365 291.005 90.8901 289.955 91.2029 288.86C91.6367 287.042 91.2723 285.133 90.7386 283.345C88.7851 276.936 84.6774 271.398 79.1106 267.669C75.2057 265.066 70.7628 263.482 66.3459 261.955C63.261 260.887 59.8811 259.855 56.7441 260.293C57.4026 259.56 58.1115 258.874 58.8658 258.241C59.7943 257.46 60.7532 257.004 61.9464 257.173C63.1395 257.343 64.272 257.516 65.4174 257.716C67.7387 258.427 70.0209 259.278 72.29 260.154C73.7828 260.701 75.2331 261.358 76.6288 262.12C78.0182 262.968 79.3528 263.902 80.6249 264.918C84.387 267.786 88.3482 270.383 92.4785 272.689C97.2511 275.323 102.262 277.462 107.269 279.631C107.8 279.904 108.386 280.052 108.983 280.065C109.282 280.064 109.572 279.964 109.808 279.78C110.044 279.597 110.212 279.339 110.285 279.05C110.305 278.733 110.232 278.418 110.077 278.143C109.209 276.368 107.239 275.474 105.456 274.611C98.0538 271.027 91.5456 265.868 85.1069 260.749C84.9504 260.625 84.813 260.478 84.699 260.315L85.8097 260.067C93.0155 265.243 100.626 269.831 108.567 273.787C108.986 274.001 109.407 274.209 109.829 274.411C110.133 274.563 110.432 274.711 110.74 274.845C112.879 275.895 115.019 277.015 116.628 278.75C117.666 279.947 118.542 281.276 119.231 282.703C121.005 286.053 122.519 289.534 123.761 293.116C123.785 293.192 123.812 293.268 123.844 293.342C124.001 293.889 124.273 294.396 124.642 294.83C124.772 294.975 124.926 295.097 125.098 295.19C125.913 295.671 127.033 295.619 127.705 296.236Z" fill="black"/>
<path d="M85.8271 259.095C93.0319 264.271 100.642 268.858 108.584 272.81L109.847 273.439C112.276 274.628 114.806 275.808 116.65 277.778C117.687 278.978 118.562 280.308 119.253 281.735C121.028 285.084 122.541 288.566 123.779 292.148C124.056 292.942 124.382 293.814 125.119 294.222C125.857 294.63 127.028 294.6 127.683 295.216C127.093 295.953 126.495 296.682 125.874 297.385C121.308 302.73 116.08 307.472 110.315 311.495C106.749 313.986 102.987 316.194 99.234 318.398L92.2919 322.464C89.3892 324.164 86.4475 325.883 83.2282 326.863C82.0176 327.232 80.7377 327.51 79.5098 327.865C78.2342 325.913 76.9629 323.96 75.657 322.073L67.5781 318.29C71.9169 315.834 75.7003 312.341 78.859 308.458C83.1978 303.113 86.5343 297.012 89.8231 290.951C90.4054 289.972 90.859 288.922 91.1725 287.827C91.6064 286.009 91.2419 284.096 90.7082 282.308C88.7537 275.919 84.6581 270.399 79.1106 266.675C75.2057 264.072 70.7628 262.493 66.3459 260.961C63.261 259.898 59.8811 258.861 56.7441 259.304C57.4036 258.571 58.1125 257.883 58.8658 257.247C59.7943 256.47 60.7532 256.015 61.9464 256.184C63.1395 256.353 64.272 256.527 65.4174 256.722C67.7387 257.438 70.0209 258.288 72.29 259.165C73.7836 259.71 75.234 260.367 76.6288 261.13C78.0182 261.979 79.3528 262.913 80.6249 263.929C84.3932 266.79 88.3601 269.38 92.4958 271.678C97.2685 274.316 102.28 276.472 107.287 278.62C107.818 278.893 108.404 279.041 109.001 279.054C109.3 279.055 109.591 278.955 109.827 278.771C110.063 278.587 110.23 278.329 110.302 278.039C110.322 277.724 110.249 277.41 110.094 277.136C109.226 275.362 107.256 274.463 105.473 273.604C98.0712 270.021 91.563 264.857 85.1242 259.72C84.9665 259.598 84.8289 259.451 84.7164 259.286L85.8271 259.095Z" fill="#E53E3E"/>
<path d="M146.619 282.651C161.661 282.651 173.854 270.457 173.854 255.416C173.854 240.375 161.661 228.181 146.619 228.181C131.578 228.181 119.385 240.375 119.385 255.416C119.385 270.457 131.578 282.651 146.619 282.651Z" fill="#E53E3E"/>
<path d="M173.698 363.808C178.796 362.207 183.972 360.575 188.45 357.647C191.595 355.59 194.307 352.943 197.162 350.496C199.31 348.657 201.549 346.921 203.518 344.891C205.283 342.991 206.935 340.988 208.465 338.894C211.947 334.336 215.544 329.864 219.255 325.479C221.247 323.14 223.351 320.758 226.132 319.457C231.074 317.135 236.875 318.702 242.09 320.294C249.9 322.68 257.671 325.21 264.977 328.841C269.134 330.911 273.16 333.219 277.356 335.202C285.027 338.825 293.171 341.311 301.284 343.784C301.887 344.041 302.557 344.096 303.194 343.94C303.649 343.732 304.04 343.405 304.326 342.995C305.384 341.688 306.231 340.224 306.838 338.656C306.954 338.478 306.997 338.262 306.959 338.053C306.921 337.845 306.805 337.658 306.634 337.532C303.163 334.152 298.659 332.074 294.451 329.666C291.101 327.752 287.895 325.605 284.693 323.457C281.617 321.396 278.514 319.313 275.933 316.662C274.631 315.322 273.46 313.842 272.05 312.619C270.804 311.6 269.484 310.674 268.101 309.851C261.916 305.901 256.013 301.527 250.434 296.76C246.19 293.133 242.715 288.46 238.181 285.206C235.4 283.21 232.163 281.392 228.761 281.757C224.622 282.191 221.568 285.662 218.682 288.656C208.985 298.726 196.75 305.933 185.929 314.788C177.095 322.008 168.838 330.586 158.078 334.395C158.56 335.992 158.729 337.588 159.215 339.168C159.82 341.363 160.576 343.514 161.475 345.607C162.367 347.459 163.372 349.256 164.482 350.987L168.795 358.029C169.663 359.46 170.57 360.914 171.81 362.051C172.461 362.675 173.698 362.901 173.698 363.808Z" fill="#464353"/>
<path opacity="0.06" d="M173.698 363.808C178.796 362.207 183.972 360.575 188.45 357.647C191.595 355.59 194.307 352.943 197.162 350.496C199.31 348.657 201.549 346.921 203.518 344.891C205.283 342.991 206.935 340.988 208.465 338.894C211.947 334.336 215.544 329.864 219.255 325.479C221.247 323.14 223.351 320.758 226.132 319.457C231.074 317.135 236.875 318.702 242.09 320.294C249.9 322.68 257.671 325.21 264.977 328.841C269.134 330.911 273.16 333.219 277.356 335.202C285.027 338.825 293.171 341.311 301.284 343.784C301.887 344.041 302.557 344.096 303.194 343.94C303.649 343.732 304.04 343.405 304.326 342.995C305.384 341.688 306.231 340.224 306.838 338.656C306.954 338.478 306.997 338.262 306.959 338.053C306.921 337.845 306.805 337.658 306.634 337.532C303.163 334.152 298.659 332.074 294.451 329.666C291.101 327.752 287.895 325.605 284.693 323.457C281.617 321.396 278.514 319.313 275.933 316.662C274.631 315.322 273.46 313.842 272.05 312.619C270.804 311.6 269.484 310.674 268.101 309.851C261.916 305.901 256.013 301.527 250.434 296.76C246.19 293.133 242.715 288.46 238.181 285.206C235.4 283.21 232.163 281.392 228.761 281.757C224.622 282.191 221.568 285.662 218.682 288.656C208.985 298.726 196.75 305.933 185.929 314.788C177.095 322.008 168.838 330.586 158.078 334.395C158.56 335.992 158.729 337.588 159.215 339.168C159.82 341.363 160.576 343.514 161.475 345.607C162.367 347.459 163.372 349.256 164.482 350.987L168.795 358.029C169.663 359.46 170.57 360.914 171.81 362.051C172.461 362.675 173.698 362.901 173.698 363.808Z" fill="black"/>
<path d="M292.477 355.542C292.961 356.226 293.289 357.008 293.439 357.833C293.589 358.657 293.557 359.504 293.344 360.315C294.886 361.43 296.764 361.982 298.664 361.881C300.556 361.777 302.416 361.351 304.165 360.623C305.681 360.068 307.117 359.316 308.435 358.384C310.704 356.71 312.34 354.315 313.663 351.828C314.396 350.462 315.021 348.687 314.075 347.455C313.714 347.035 313.271 346.692 312.773 346.448C309.437 344.543 305.964 342.888 302.382 341.498C301.396 341.045 300.326 340.804 299.241 340.791C297.904 340.864 296.694 341.598 295.635 342.413C293.257 344.264 291.34 346.64 290.034 349.355C289.626 350.223 288.394 352.288 289.001 353.182C289.279 353.594 290.303 353.737 290.737 353.993C291.419 354.382 292.011 354.91 292.477 355.542V355.542Z" fill="#FBBEBE"/>
<path d="M312.343 345.277C319.685 346.643 326.436 350.188 333.651 352.102C336.571 352.874 339.578 353.403 342.368 354.54C345.158 355.677 347.787 357.621 348.989 360.389C349.497 361.718 349.833 363.106 349.991 364.519C350.304 366.519 350.56 368.754 349.371 370.394C348.117 372.13 345.748 372.516 343.626 372.767C335.999 373.679 328.371 374.585 320.717 375.227C319.171 375.324 317.631 375.508 316.105 375.778C314.847 376.034 313.619 376.412 312.37 376.707C310.755 377.089 309.107 377.323 307.467 377.575C303.271 378.174 299.028 378.781 294.815 378.317C292.893 378.104 290.741 377.484 289.895 375.748C289.543 374.849 289.395 373.883 289.461 372.919C289.461 370.346 289.417 367.769 289.461 365.196C289.5 362.554 289.63 359.812 290.827 357.456C291.125 356.735 291.685 356.154 292.394 355.829C292.83 355.704 293.287 355.662 293.739 355.707C295.995 355.785 298.329 355.881 300.347 356.887C301.948 357.681 303.102 355.308 304.733 356.02C307.827 357.386 305.731 353.243 308.855 354.531C309.584 352.284 312.682 353.62 312.144 351.316C311.606 349.012 313.537 350.015 313.315 347.646C313.306 347.129 313.206 346.618 313.02 346.136C312.777 345.672 312.855 345.203 312.343 345.277Z" fill="#464353"/>
<path opacity="0.06" d="M92.4348 206.457C90.7514 207.438 88.6644 207.255 86.7033 207.212C84.9882 207.177 83.2728 207.265 81.5705 207.477C80.9575 207.52 80.3582 207.679 79.8046 207.945C79.0837 208.41 78.5138 209.075 78.1645 209.859C77.4702 211.192 77.0024 212.632 76.7804 214.119C76.5375 215.79 76.5635 217.616 75.5222 218.94C74.1034 220.74 71.8906 220.463 69.8817 220.819C68.1334 221.154 66.4577 221.794 64.9312 222.71C63.4259 223.619 62.1344 224.842 61.1445 226.295C60.1547 227.749 59.4898 229.398 59.1953 231.132C59.1389 231.527 59.0998 231.917 59.0825 232.312C59.0391 233.431 59.1519 234.573 59.0044 235.67C58.9687 235.944 58.9136 236.215 58.8395 236.482C58.8203 236.56 58.7957 236.637 58.7658 236.712C58.7007 236.204 58.6269 235.705 58.5401 235.206C57.2174 233.863 56.0713 232.357 55.1298 230.724C54.876 230.442 54.6721 230.12 54.5268 229.769C53.121 226.498 52.1621 223.188 52.1621 219.604C52.1618 214.904 53.6478 210.324 56.4075 206.52C59.1673 202.715 63.0594 199.881 67.5273 198.423C71.9951 196.964 76.8098 196.956 81.2827 198.399C85.7555 199.842 89.6575 202.662 92.4305 206.457H92.4348Z" fill="black"/>
<path d="M93.8624 197.918C92.7473 195.337 90.3913 193.506 87.9703 192.07C83.1976 189.223 77.7047 187.436 72.1337 187.362C69.3228 187.363 66.5196 187.654 63.7685 188.23C61.0875 188.709 58.4611 189.455 55.9283 190.456C51.749 192.194 48.0548 194.922 45.1637 198.404C44.5564 198.45 43.9541 198.548 43.3631 198.695C41.0028 199.285 38.8768 200.582 36.9374 202.053C35.3143 203.229 33.8729 204.637 32.6593 206.231C31.2389 208.268 30.2565 210.577 29.774 213.013C28.1209 220.632 30.1558 228.494 31.6484 236.143C33.1409 243.792 34.013 252.149 30.3467 259.022C28.9627 261.625 26.9972 263.838 25.522 266.372C24.0468 268.905 23.0662 271.956 23.9036 274.767C24.9015 278.186 28.2598 280.355 30.0126 283.432C31.0862 285.444 31.4693 287.753 31.1033 290.004C30.7372 292.255 29.6422 294.324 27.9864 295.893C30.7416 296.847 33.8091 295.819 36.2909 294.292C38.2586 293.146 39.9327 291.558 41.1807 289.654C44.3003 284.603 42.9162 278.082 44.0009 272.246C45.4457 264.61 51.2771 257.798 50.4744 250.066C49.9321 244.86 46.4957 240.543 43.7927 236.078C41.9896 233.101 40.4743 229.958 39.2673 226.693C38.3995 224.363 37.6966 221.86 38.1262 219.413C38.2683 218.666 38.4969 217.938 38.8074 217.243C38.8074 217.326 38.8074 217.408 38.8074 217.491C38.8568 219.738 39.3616 221.952 40.2912 223.999C43.5193 230.594 52.1145 233.024 55.7547 239.397C56.8177 238.239 57.9241 237.024 58.358 235.514C58.7398 234.169 58.5446 232.737 58.601 231.34C58.7528 227.435 61.1261 223.756 64.4497 221.743C65.975 220.825 67.6513 220.186 69.4002 219.855C71.4048 219.495 73.6175 219.769 75.0407 217.968C76.082 216.666 76.0559 214.818 76.3033 213.152C76.5232 211.663 76.991 210.221 77.6873 208.887C78.0354 208.104 78.6056 207.44 79.3274 206.978C79.8817 206.709 80.4828 206.55 81.0976 206.509C82.7985 206.297 84.5124 206.209 86.2261 206.244C88.2089 206.292 90.3306 206.47 92.0314 205.45C94.4264 203.993 94.9774 200.522 93.8624 197.918Z" fill="#464353"/>
<path opacity="0.06" d="M336.318 173.968C336.318 174.029 336.318 174.085 336.318 174.146C335.533 180.914 329.025 180.602 327.506 191.267C326.907 195.445 320.564 196.217 316.395 197.341C314.594 196.734 312.772 196.209 310.971 195.554C306.806 194.048 309.717 191.788 311.5 189.358C317.336 181.4 318.442 170.527 325.068 163.217C327.498 167.833 331.341 171.551 336.036 173.825C336.127 173.886 336.223 173.929 336.318 173.968Z" fill="black"/>
<path d="M336.471 170.085C336.471 171.111 336.413 172.137 336.298 173.157C335.499 180.202 331.984 186.657 326.5 191.151C321.017 195.645 313.997 197.824 306.933 197.224C299.868 196.624 293.316 193.293 288.669 187.939C284.022 182.585 281.645 175.629 282.045 168.551C282.445 161.472 285.59 154.829 290.811 150.032C296.031 145.235 302.917 142.664 310.004 142.863C317.091 143.063 323.821 146.019 328.763 151.102C333.705 156.185 336.471 162.995 336.471 170.085V170.085Z" fill="#A1616A"/>
<path d="M347.426 173.131C350.546 172.979 353.544 174.202 356.425 175.404C367.849 180.177 379.368 184.989 389.578 191.996C394.611 195.467 399.275 199.406 403.93 203.359L423.06 219.612C426.735 222.732 430.436 225.882 433.386 229.7C435.123 232.055 436.707 234.519 438.129 237.076L440.966 241.914C442.129 243.807 443.144 245.787 444.004 247.836C445.461 251.572 446.004 255.928 448.945 258.657C450.92 260.492 453.64 261.239 456.052 262.449C458.465 263.66 460.825 265.786 460.786 268.484C460.786 270.22 459.736 271.782 458.946 273.344C457.311 276.608 456.625 280.266 456.968 283.9L425.685 259.993C424.44 259.043 423.138 258.063 421.607 257.742C419.619 257.308 417.593 258.058 415.676 258.735C400.557 264.067 384.491 266.179 368.508 264.935C361.441 264.38 354.264 263.109 348.077 259.651C344.654 257.742 341.625 255.212 338.618 252.709C334.865 249.567 331.099 246.417 327.771 242.825C326.904 241.866 326.001 240.812 325.78 239.527C325.615 238.599 325.819 237.653 325.897 236.716C326.444 230.134 320.977 224.654 319.311 218.263C318.571 215.249 318.673 212.09 319.608 209.131C320.542 206.172 322.272 203.527 324.609 201.485C328.336 204.748 328.201 210.479 327.767 215.412C327.181 222.055 329.038 225.348 328.453 231.995C330.813 231.908 330.383 233.427 331.39 231.288C332.397 229.149 332.592 226.737 332.783 224.381C333.48 215.859 334.326 207.352 335.321 198.86C335.816 194.612 336.38 190.373 336.922 186.13C337.252 183.548 337.208 181.136 338.571 178.845C340.462 175.673 343.678 173.309 347.426 173.131Z" fill="#E53E3E"/>
<path d="M351.51 180.871C353.497 180.246 355.636 180.819 357.632 181.414C361.161 182.461 364.669 183.567 368.158 184.733C371.008 185.683 373.898 186.703 376.31 188.494C378.814 190.351 380.649 192.933 382.467 195.471C383.769 197.298 385.07 199.146 385.938 201.22C387.066 203.936 387.37 206.913 387.673 209.837C387.873 211.099 387.857 212.386 387.626 213.642C387.218 215.006 386.501 216.258 385.53 217.3C384.036 219.068 382.305 220.62 380.384 221.912C375.278 225.348 369.103 226.78 363.09 228.043C357.723 229.166 352.317 230.212 346.841 230.55C344.711 230.685 342.238 230.55 340.936 228.867C340.566 228.342 340.273 227.766 340.068 227.157C336.869 218.684 335.484 209.633 336.003 200.591C336.05 198.943 336.305 197.307 336.762 195.723C337.213 194.455 337.771 193.228 338.432 192.057C340.077 188.946 341.808 185.726 344.641 183.644C347.605 181.474 351.445 180.789 355.12 180.928" fill="#A1616A"/>
<path opacity="0.06" d="M371.498 213.048C369.793 214.198 369.199 216.419 368.982 218.467C368.058 227.175 371.65 235.796 371.411 244.547C371.221 251.489 368.626 258.154 366.066 264.632C361.701 275.683 359.428 287.684 358.547 299.533C357.666 311.382 356.378 323.722 350.017 333.744C348.572 336.014 346.889 338.122 345.474 340.404C343.99 342.791 342.814 345.351 341.504 347.832C337.644 355.162 332.667 361.847 326.752 367.648C325.017 369.34 323.177 370.98 320.964 371.956C319.538 372.575 318.003 372.902 316.449 372.918C314.894 372.935 313.352 372.64 311.914 372.052C308.946 370.824 306.447 368.056 306.325 364.845C306.217 361.973 307.931 359.382 309.649 357.083C315.472 349.292 322.169 342.194 329.607 335.927C330.957 334.79 332.38 333.614 333.078 331.992C333.864 330.122 333.542 328 333.642 325.974C333.803 322.741 335.061 319.674 335.812 316.524C338.849 303.729 333.451 289.758 337.842 277.362C338.818 274.607 340.268 271.973 340.61 269.07C340.853 267.04 340.346 264.771 339.079 263.248C337.889 261.879 337.222 260.133 337.196 258.319C337.196 257.946 337.196 257.577 337.243 257.212C337.773 251.533 338.298 245.827 338.011 240.131C337.725 234.434 336.593 228.706 333.963 223.643C332.601 221.018 330.839 218.562 329.998 215.729C328.644 211.143 329.894 206.184 331.911 201.845C333.486 198.452 335.586 195.22 338.519 192.894C343.969 188.577 352.126 188.078 358.091 191.649C362.491 194.278 365.502 198.699 367.945 203.207C369.698 206.501 371.546 209.29 371.498 213.048Z" fill="black"/>
<path d="M372.489 213.048C370.784 214.198 370.189 216.419 369.972 218.467C369.048 227.175 372.641 235.796 372.402 244.547C372.211 251.489 369.617 258.154 367.057 264.632C362.692 275.683 360.423 287.684 359.538 299.533C358.652 311.382 357.368 323.722 351.007 333.744C349.563 336.014 347.884 338.122 346.465 340.404C344.985 342.791 343.805 345.351 342.495 347.832C338.633 355.161 333.656 361.846 327.743 367.648C326.007 369.34 324.163 370.98 321.951 371.956C320.525 372.575 318.989 372.902 317.435 372.918C315.881 372.935 314.339 372.64 312.9 372.052C309.936 370.824 307.437 368.056 307.316 364.845C307.203 361.973 308.917 359.382 310.639 357.083C316.463 349.292 323.159 342.194 330.598 335.927C331.947 334.79 333.375 333.614 334.069 331.992C334.858 330.122 334.533 328 334.633 325.974C334.793 322.741 336.052 319.674 336.802 316.524C339.839 303.729 334.442 289.758 338.833 277.362C339.809 274.607 341.263 271.973 341.605 269.07C341.844 267.04 341.341 264.771 340.074 263.248C338.861 261.888 338.175 260.14 338.139 258.319C338.139 257.946 338.139 257.577 338.186 257.212C338.711 251.533 339.236 245.827 338.95 240.131C338.664 234.434 337.531 228.706 334.902 223.643C333.539 221.018 331.778 218.562 330.936 215.729C329.583 211.143 330.832 206.184 332.85 201.845C334.429 198.452 336.525 195.22 339.458 192.894C344.907 188.577 353.064 188.078 359.03 191.649C363.429 194.278 366.441 198.699 368.883 203.207C370.68 206.501 372.519 209.29 372.489 213.048Z" fill="#A1616A"/>
<path d="M416.367 326.347L415.994 326.459Z" fill="#464353"/>
<path d="M340.371 345.706C340.387 345.56 340.413 345.415 340.449 345.272Z" fill="#464353"/>
<path d="M433.396 315.934C434.646 314.489 436.572 313.842 438.425 313.361C441.41 312.589 444.46 312.092 447.536 311.877C449.446 311.671 451.376 311.79 453.246 312.228C455.094 312.736 456.847 313.838 457.784 315.508C458.613 316.984 458.743 318.737 458.852 320.424C459.077 323.895 459.286 327.366 458.713 330.785C458.344 332.955 457.654 335.055 457.207 337.207C455.758 344.262 457.016 351.564 456.886 358.766C456.856 360.302 456.756 361.877 456.11 363.27C455.42 364.749 454.179 365.873 452.968 366.984C451.636 368.186 450.283 369.396 448.677 370.199C446.3 371.392 443.562 371.592 440.902 371.674C439.284 371.722 437.618 371.726 436.129 371.132C434.641 370.537 433.301 369.201 433.192 367.583C433.019 364.836 436.116 363.04 437.002 360.437C437.704 358.363 436.897 356.072 435.778 354.184C433.983 351.176 431.421 348.698 428.354 347.004C427.218 346.379 426.007 345.854 425.061 344.973C424.115 344.092 423.473 342.726 423.877 341.502C424.358 340.023 426.081 339.333 427.63 339.185C429.179 339.038 430.814 339.151 432.207 338.461C433.448 337.849 434.311 336.669 434.906 335.424C436.171 332.766 436.347 329.718 435.396 326.933C435.02 325.873 434.475 324.881 433.782 323.995C433.131 323.162 431.795 322.459 431.331 321.548C430.506 319.908 432.29 317.235 433.396 315.934Z" fill="#E53E3E"/>
<path opacity="0.06" d="M408.184 253.056C401.016 246.721 391.024 244.999 381.652 243.077C376.825 242.09 372.02 240.991 367.239 239.779C364.097 238.981 360.947 238.13 357.693 237.909C354.439 237.688 351.09 238.143 348.304 239.801C345.519 241.458 343.419 244.461 343.401 247.702C343.401 249.003 343.709 250.279 343.614 251.568C343.462 253.642 342.312 255.473 341.527 257.412C340.326 260.478 340.142 263.848 341.002 267.027C342.39 272.09 346.391 276.55 346.044 281.779C345.467 290.53 345.645 299.676 347.441 308.245C349.237 316.814 351.48 325.423 351.428 334.191C351.376 342.96 348.721 352.18 342.174 358.02C346.61 362.185 352.035 365.149 357.936 366.632C362.982 367.895 368.983 367.769 372.575 364.008C373.409 363.14 374.098 361.981 373.925 360.788C373.746 360.035 373.43 359.322 372.992 358.684C370.523 354.263 370.823 348.813 371.916 343.876C373.009 338.938 374.879 334.139 375.352 329.098C375.699 325.44 375.309 321.722 376.007 318.112C376.545 315.348 377.708 312.745 378.407 310.016C380.468 301.919 378.303 293.42 376.151 285.354C377.951 289.497 381.357 292.73 384.88 295.541C390.226 299.802 396.69 303.564 403.485 302.809C409.533 302.132 414.683 297.928 418.237 292.994C418.267 287.289 420.246 281.896 419.894 276.203C419.668 273.703 419.22 271.227 418.558 268.806C417.894 266.098 417.213 263.365 415.955 260.879C414.293 257.577 410.952 255.499 408.184 253.056Z" fill="black"/>
<path d="M409.667 253.056C402.5 246.721 392.512 244.999 383.136 243.077C378.308 242.09 373.505 240.991 368.726 239.779C365.585 238.981 362.431 238.13 359.181 237.909C355.931 237.688 352.582 238.143 349.796 239.801C347.011 241.458 344.906 244.461 344.893 247.702C344.893 249.003 345.197 250.279 345.102 251.568C344.954 253.642 343.778 255.473 343.015 257.412C341.815 260.478 341.633 263.849 342.494 267.027C343.878 272.09 347.878 276.55 347.536 281.779C346.954 290.53 347.132 299.676 348.928 308.245C350.725 316.814 352.968 325.423 352.916 334.191C352.864 342.96 350.191 352.15 343.639 357.981C348.076 362.145 353.501 365.109 359.402 366.593C364.448 367.856 370.453 367.73 374.041 363.968C374.874 363.101 375.564 361.942 375.391 360.749C375.212 359.996 374.896 359.283 374.458 358.645C371.989 354.224 372.289 348.774 373.382 343.836C374.475 338.899 376.345 334.1 376.823 329.059C377.165 325.401 376.775 321.683 377.478 318.073C378.011 315.309 379.179 312.706 379.873 309.976C381.934 301.88 379.773 293.381 377.617 285.315C379.417 289.458 382.823 292.691 386.351 295.502C391.696 299.763 398.156 303.525 404.951 302.77C410.999 302.093 416.149 297.889 419.703 292.955C419.729 287.25 421.707 281.857 421.356 276.164C421.129 273.664 420.682 271.188 420.02 268.767C419.36 266.059 418.675 263.326 417.416 260.84C415.802 257.577 412.435 255.499 409.667 253.056Z" fill="#A1616A"/>
<path d="M359.876 362.545C356.693 360.607 353.944 358.032 351.801 354.983C351.029 353.889 350.335 352.727 349.372 351.798C348.408 350.87 347.102 350.18 345.77 350.319C344.265 350.475 343.059 351.62 342.104 352.8C339.544 355.972 337.896 359.851 335.054 362.78C331.774 366.168 327.196 367.986 322.627 369.149C318.059 370.312 313.342 370.924 308.865 372.394C307.459 372.854 305.979 373.479 305.22 374.75C304.257 376.369 304.786 378.49 305.801 380.096C307.671 383.133 310.891 385.09 314.249 386.253C317.607 387.415 321.161 387.88 324.662 388.565C330.849 389.776 337.188 391.715 343.345 390.348C345.801 389.802 348.118 388.743 350.6 388.283C356.24 387.233 362.058 389.355 367.72 388.504C370.458 388.092 373.044 386.999 375.53 385.767C376.777 385.228 377.911 384.458 378.871 383.497C379.778 382.491 380.325 381.063 379.951 379.762C379.739 379.011 379.249 378.378 378.923 377.67C378.411 376.577 378.307 375.349 378.186 374.147C377.717 369.572 376.923 365.037 375.808 360.576C375.422 359.018 374.845 357.282 373.391 356.601C373.095 356.441 372.748 356.402 372.424 356.493C371.907 356.688 371.738 357.313 371.582 357.838C371.156 359.289 370.34 360.596 369.224 361.617C368.107 362.637 366.733 363.333 365.249 363.627C363.765 363.921 362.229 363.803 360.808 363.286C359.386 362.769 358.133 361.872 357.186 360.693" fill="#E53E3E"/>
<path opacity="0.06" d="M336.471 170.085C336.471 171.111 336.413 172.137 336.298 173.157C334.931 173.362 333.534 173.241 332.223 172.804C330.911 172.368 329.72 171.628 328.748 170.645C327.833 169.673 327.147 168.497 326.241 167.516C325.334 166.536 324.071 165.72 322.77 165.824C321.659 165.907 320.696 166.61 319.936 167.425C318.948 168.487 318.224 169.767 317.823 171.161C317.533 172.146 317.389 173.265 316.574 173.921C315.758 174.576 314.756 174.532 313.788 174.498C312.534 174.454 311.233 174.393 310.126 173.803C308.044 172.68 307.341 170.107 306.568 167.868C305.267 164.106 302.338 156.991 297.787 156.231C295.617 155.871 292.979 157.017 291.279 158.253C288.714 160.114 286.823 161.321 283.508 161.269C285.598 155.17 289.783 150.01 295.32 146.706C300.856 143.403 307.385 142.171 313.745 143.229C320.105 144.286 325.883 147.566 330.053 152.483C334.222 157.401 336.512 163.638 336.515 170.085H336.471Z" fill="black"/>
<path d="M283.468 160.275C282.686 160.292 281.907 160.168 281.169 159.91C279.064 159.086 278.04 156.656 277.862 154.404C277.585 150.972 278.73 147.606 279.88 144.356C280.123 143.649 280.414 142.889 281.047 142.494C281.56 142.243 282.12 142.102 282.691 142.082C285.807 141.648 288.51 139.744 290.809 137.609C293.109 135.474 295.183 133.053 297.751 131.274C304.563 126.575 314.673 127.452 320.565 133.248C322.899 135.539 324.904 138.646 328.14 139.184C330.006 139.492 332.006 138.85 333.781 139.544C335.082 140.052 336.011 141.201 336.757 142.377C339.178 146.178 340.315 150.682 340.692 155.172C341.07 159.663 340.723 164.18 340.371 168.67C340.391 169.343 340.218 170.007 339.872 170.584C339.595 170.917 339.247 171.183 338.853 171.365C337.203 172.178 335.339 172.451 333.526 172.146C331.712 171.841 330.04 170.972 328.748 169.664C327.828 168.696 327.147 167.521 326.24 166.536C325.333 165.551 324.071 164.744 322.769 164.848C321.663 164.93 320.691 165.633 319.936 166.449C318.948 167.511 318.224 168.791 317.823 170.185C317.536 171.17 317.389 172.289 316.573 172.94C315.757 173.591 314.755 173.556 313.783 173.521C312.534 173.473 311.232 173.417 310.126 172.823C308.039 171.703 307.336 169.13 306.568 166.891C305.266 163.13 302.342 156.01 297.786 155.255C295.617 154.89 292.979 156.04 291.278 157.277C288.675 159.125 286.8 160.331 283.468 160.275Z" fill="#464353"/>
<path opacity="0.06" d="M139.784 322.294C139.485 324.273 137.671 325.817 136.391 327.353C132.912 331.553 129.384 335.766 125.492 339.611C121.327 343.719 116.754 347.381 112.185 351.043L106.258 355.786C105.527 356.454 104.67 356.97 103.738 357.304C102.645 357.577 101.49 357.439 100.492 356.918C100.579 356.744 100.67 356.584 100.77 356.423L107.877 344.513C109.274 342.179 110.189 340.053 111.782 337.862C114.181 334.582 116.602 331.284 119.557 328.503C123.293 324.984 128.083 322.429 132.526 319.886C133.168 317.96 135.858 317.426 137.676 318.337C138.349 318.687 138.956 319.152 139.468 319.713C139.793 320.532 139.902 321.421 139.784 322.294V322.294Z" fill="black"/>
<path d="M108.372 345.004L101.265 356.918C100.975 357.399 100.675 357.946 100.801 358.493C100.961 358.952 101.265 359.346 101.669 359.617C104.394 361.834 107.413 364.172 108.268 367.578C108.88 370.008 108.268 372.611 108.815 375.05C109.817 379.449 114.238 382.122 118.421 383.814C127.793 387.606 138.197 389.064 148.155 387.285C158.112 385.506 167.562 380.438 174.01 372.646C175.988 370.251 177.68 367.63 179.559 365.157C184.765 358.324 191.373 352.714 197.929 347.16C206.368 340.01 211.341 329.345 218.756 321.127C220.105 319.63 221.593 318.09 223.528 317.595C224.613 317.322 226.131 317.726 226.175 318.845C226.275 321.014 228.019 322.789 229.212 324.602C233.707 331.475 238.41 338.56 245.357 342.943C249.157 345.346 253.466 346.817 257.761 348.149C268.652 351.542 279.755 354.223 290.845 356.879C291.404 355.76 292.076 354.7 292.849 353.716C293.999 352.306 295.513 351.23 296.667 349.811C298.78 347.255 299.522 343.875 300.199 340.63C293.574 336.573 286.775 332.386 280.241 328.169C276.952 326.052 273.641 323.887 270.977 321.023C269.242 319.14 267.784 316.984 266.044 315.087C264.264 313.248 262.347 311.546 260.308 309.998L244.688 297.489C240.202 293.901 235.629 290.113 231.238 286.399C228.769 284.308 226.032 282.108 222.804 282.009C220.04 281.922 217.497 283.401 215.12 284.824C201.154 293.187 186.981 301.173 172.599 308.783C169.688 310.319 166.764 311.846 163.987 313.612C158.584 317.049 153.787 321.357 149.79 326.36C149.057 327.275 148.129 328.316 146.966 328.178C146.646 328.131 146.338 328.023 146.059 327.861C144.267 326.902 143.169 325.049 142.154 323.292C141.139 321.535 140.006 319.687 138.188 318.775C136.37 317.864 133.685 318.398 133.038 320.329C128.574 322.945 123.801 325.479 120.061 328.998C117.106 331.779 114.685 335.072 112.286 338.356C110.685 340.548 109.765 342.674 108.372 345.004Z" fill="#464353"/>
<path opacity="0.06" d="M96.7305 272.337C96.7305 272.337 103.876 275.509 109.001 279.089Z" fill="black"/>
<path d="M454.621 278.859C454.751 282.907 454.855 286.963 454.808 291.007C454.782 293.151 454.691 295.385 453.662 297.264C452.929 298.613 451.77 299.667 450.625 300.7L443.479 307.178C441.262 309.187 438.871 311.282 435.917 311.781C432.537 312.354 429.235 310.71 425.985 309.612C422.712 308.509 419.285 307.934 415.832 307.907C413.854 307.907 411.858 308.063 409.905 307.751C408.494 307.482 407.108 307.088 405.766 306.575L399.314 304.336C399.497 302.709 401.05 301.672 402.352 300.644C406.972 296.895 408.999 290.868 410.456 285.102C411.641 280.6 412.486 276.016 412.982 271.387C413.203 269.096 413.303 266.766 412.821 264.514C412.367 262.698 411.727 260.933 410.912 259.247L408.643 254.132C407.341 251.242 404.738 249.958 402.087 248.253C406.087 249.771 410.964 250.366 414.006 253.377C414.592 254.044 415.288 254.607 416.062 255.043C416.891 255.438 417.832 255.477 418.739 255.624C423.256 256.301 427.096 259.139 430.827 261.764C435.394 264.98 440.089 268.001 444.911 270.827C447.08 272.103 449.319 273.357 451.146 275.097C452.972 276.837 454.404 279.154 454.521 281.674" fill="#464353"/>
<path opacity="0.06" d="M65.5359 271.751C59.8477 272.875 56.8887 279.561 57.2228 285.345C57.5438 290.511 59.6656 295.401 63.219 299.164C65.5923 301.659 68.5514 303.585 70.6947 306.28C73.862 310.254 74.9641 315.508 77.7973 319.73C79.8539 322.793 82.7392 325.197 85.6072 327.501C92.2195 332.777 99.0473 337.771 106.091 342.482C108.954 344.396 112.087 346.331 115.532 346.257C118.777 346.188 121.767 344.283 123.884 341.819C126.001 339.354 127.355 336.36 128.73 333.41C133.685 322.606 138.675 311.686 141.044 300.04C141.786 296.383 142.285 292.612 143.942 289.267C145.244 286.664 147.17 284.434 148.889 282.082C152.948 276.502 155.797 270.135 157.254 263.391C158.2 258.991 158.516 254.279 156.963 250.07C155.41 245.862 151.639 242.213 147.149 241.883C143.595 241.623 140.107 243.445 137.72 246.096C135.334 248.747 133.928 252.136 132.969 255.568C131.595 260.505 131.067 265.64 131.407 270.753C131.685 274.88 132.527 279.045 131.815 283.123C131.312 286 130.058 288.686 128.817 291.332C125.611 298.162 122.352 305.078 117.506 310.857C115.927 312.74 113.753 314.645 111.336 314.202C107.995 313.595 107.11 309.364 105.461 306.392C103.44 302.748 99.6041 300.557 96.5973 297.663C92.3193 293.541 89.7551 288.013 86.7136 282.911C83.6721 277.808 79.7368 272.771 74.131 270.814C68.5253 268.857 61.0539 271.37 59.6134 277.132" fill="black"/>
<path opacity="0.06" d="M69.8256 275.713C64.1331 276.837 56.8873 277.57 57.2431 283.362C57.5605 288.529 59.6828 293.42 63.2393 297.181C65.6126 299.68 68.5717 301.607 70.715 304.301C73.8824 308.276 74.9844 313.525 77.8176 317.751C79.8742 320.819 82.7595 323.223 85.6275 325.522C92.2398 330.801 99.0676 335.795 106.111 340.504C108.975 342.422 112.107 344.357 115.552 344.283C118.798 344.214 121.787 342.305 123.904 339.845C126.022 337.385 127.375 334.386 128.751 331.432C133.706 320.628 138.695 309.707 141.064 298.062C141.806 294.409 142.305 290.634 143.963 287.293C145.264 284.69 147.191 282.46 148.909 280.104C152.969 274.525 155.818 268.16 157.274 261.417C158.22 257.013 158.537 252.305 156.983 248.092C155.43 243.879 151.66 240.239 147.169 239.905C143.615 239.644 140.127 241.471 137.741 244.118C135.354 246.764 133.949 250.157 132.99 253.594C131.615 258.531 131.087 263.666 131.428 268.779C131.705 272.91 132.547 277.075 131.836 281.149C131.332 284.03 130.078 286.716 128.838 289.363C125.631 296.192 122.373 303.104 117.526 308.887C115.947 310.77 113.773 312.671 111.357 312.233C108.016 311.621 107.131 307.39 105.482 304.423C103.46 300.778 99.6244 298.587 96.6176 295.693C92.3396 291.576 89.7754 286.044 86.7339 280.941C83.6924 275.839 79.7571 270.806 74.1514 268.845C68.5456 266.883 75.5658 279.444 74.121 285.206" fill="black"/>
<path d="M65.5359 270.758C59.8477 271.882 56.8887 278.568 57.2228 284.352C57.5428 289.519 59.6646 294.411 63.219 298.175C65.5923 300.67 68.5514 302.596 70.6947 305.291C73.862 309.265 74.9641 314.519 77.7973 318.741C79.8539 321.808 82.7392 324.212 85.6072 326.516C92.2195 331.792 99.0473 336.784 106.091 341.493C108.954 343.411 112.087 345.346 115.532 345.273C118.777 345.203 121.767 343.298 123.884 340.834C126.001 338.37 127.355 335.376 128.73 332.425C133.685 321.622 138.675 310.701 141.044 299.051C141.786 295.398 142.285 291.623 143.942 288.283C145.244 285.679 147.17 283.449 148.889 281.093C152.948 275.515 155.798 269.15 157.254 262.406C158.2 258.002 158.516 253.294 156.963 249.081C155.41 244.869 151.639 241.228 147.149 240.898C143.595 240.634 140.107 242.46 137.72 245.111C135.334 247.762 133.928 251.151 132.969 254.583C131.595 259.52 131.067 264.655 131.407 269.769C131.685 273.895 132.527 278.06 131.815 282.134C131.312 285.015 130.058 287.701 128.817 290.348C125.611 297.177 122.352 304.093 117.506 309.872C115.927 311.755 113.753 313.656 111.336 313.218C107.995 312.606 107.11 308.38 105.461 305.408C103.44 301.759 99.6041 299.568 96.5973 296.678C92.3193 292.556 89.7551 287.029 86.7136 281.926C83.6721 276.824 79.7368 271.791 74.131 269.834C68.5253 267.877 61.0539 270.389 59.6134 276.151" fill="#FBBEBE"/>
<g opacity="0.06">
<path opacity="0.06" d="M43.793 236.1C41.99 233.122 40.4747 229.98 39.2676 226.715L39.1201 226.281C38.2045 225.298 37.4345 224.189 36.8336 222.988C35.9034 220.941 35.3985 218.727 35.3497 216.479C35.3497 216.397 35.3497 216.315 35.3497 216.232C35.0392 216.926 34.8106 217.654 34.6685 218.402C34.2346 220.849 34.9505 223.348 35.8096 225.682C37.0175 228.947 38.5328 232.089 40.335 235.067C43.0294 239.571 46.47 243.909 47.0037 249.077C47.8064 256.809 41.975 263.616 40.5346 271.257C39.4325 277.092 40.8296 283.614 37.71 288.664C36.4631 290.568 34.7887 292.155 32.8202 293.298C31.5855 294.085 30.2338 294.67 28.8155 295.033C28.5568 295.34 28.2786 295.63 27.9824 295.901C30.7376 296.856 33.8051 295.827 36.2869 294.3C38.2546 293.154 39.9287 291.566 41.1767 289.662C44.2963 284.612 42.9122 278.09 43.9969 272.255C45.4417 264.618 51.2731 257.807 50.4704 250.075C49.9324 244.877 46.4961 240.542 43.793 236.1Z" fill="black"/>
<path opacity="0.06" d="M93.8641 197.918C92.749 195.337 90.3931 193.506 87.972 192.07C84.903 190.228 81.5632 188.881 78.0752 188.078C80.3137 188.859 82.4679 189.864 84.5053 191.076C86.9264 192.516 89.278 194.343 90.4018 196.929C91.5255 199.515 90.9658 203.003 88.5534 204.444C86.8526 205.463 84.731 205.281 82.7481 205.238C81.0346 205.199 79.3204 205.286 77.6197 205.498C77.0055 205.542 76.4051 205.701 75.8494 205.967C75.1254 206.436 74.5552 207.107 74.2094 207.897C73.5117 209.232 73.0424 210.673 72.821 212.163C72.578 213.829 72.5997 215.655 71.5584 216.979C70.1439 218.779 67.9311 218.506 65.9179 218.862C64.1696 219.197 62.4939 219.837 60.9674 220.753C57.6438 222.762 55.2705 226.433 55.1187 230.351C55.0666 231.748 55.2575 233.175 54.88 234.52C54.6365 235.305 54.2545 236.04 53.752 236.69C54.5208 237.512 55.1933 238.418 55.7565 239.393C56.8195 238.234 57.9259 237.02 58.3598 235.51C58.7416 234.165 58.5463 232.733 58.6027 231.336C58.7546 227.431 61.1279 223.751 64.4514 221.738C65.9768 220.821 67.653 220.182 69.402 219.851C71.4065 219.491 73.6193 219.764 75.0424 217.964C76.0837 216.662 76.0577 214.814 76.305 213.147C76.525 211.658 76.9928 210.217 77.6891 208.882C78.0371 208.099 78.6074 207.435 79.3292 206.973C79.8835 206.704 80.4846 206.545 81.0994 206.505C82.8002 206.293 84.5142 206.205 86.2278 206.24C88.2107 206.288 90.3323 206.466 92.0331 205.446C94.4282 203.993 94.9792 200.522 93.8641 197.918Z" fill="black"/>
</g>
<path opacity="0.06" d="M65.4512 239.375C65.4512 239.375 70.5753 243.784 80.3072 241.111C80.3072 241.102 74.2806 243.476 65.4512 239.375Z" fill="black"/>
<path opacity="0.06" d="M340.278 165.009C340.288 165.679 340.107 166.338 339.757 166.909C339.479 167.241 339.131 167.506 338.737 167.686C337.089 168.5 335.226 168.774 333.413 168.469C331.6 168.165 329.929 167.297 328.637 165.989C327.717 165.017 327.036 163.82 326.129 162.861C325.222 161.902 323.96 161.065 322.658 161.169C321.552 161.256 320.584 161.958 319.825 162.77C318.841 163.835 318.118 165.114 317.712 166.506C317.43 167.495 317.278 168.61 316.466 169.265C315.655 169.92 314.648 169.877 313.677 169.842C312.423 169.799 311.121 169.742 310.019 169.148C307.932 168.028 307.229 165.451 306.457 163.217C305.155 159.451 302.231 152.335 297.679 151.576C295.51 151.216 292.868 152.365 291.171 153.598C288.607 155.459 286.715 156.665 283.396 156.635C282.614 156.65 281.836 156.526 281.097 156.27C279.188 155.52 278.168 153.446 277.86 151.389C277.742 152.332 277.717 153.284 277.786 154.231C277.968 156.479 278.992 158.908 281.097 159.737C281.836 159.993 282.614 160.116 283.396 160.101C286.715 160.154 288.603 158.947 291.171 157.086C292.876 155.854 295.51 154.7 297.679 155.064C302.213 155.802 305.164 162.917 306.439 166.679C307.212 168.918 307.915 171.495 310.002 172.615C311.104 173.205 312.405 173.265 313.659 173.309C314.631 173.343 315.698 173.348 316.449 172.732C317.2 172.116 317.412 170.957 317.694 169.972C318.1 168.58 318.823 167.301 319.807 166.237C320.567 165.425 321.543 164.722 322.641 164.636C323.977 164.531 325.244 165.343 326.112 166.328C326.979 167.313 327.7 168.497 328.619 169.456C329.911 170.764 331.583 171.632 333.396 171.936C335.209 172.241 337.072 171.966 338.72 171.152C339.113 170.971 339.461 170.706 339.74 170.376C340.09 169.803 340.271 169.142 340.26 168.471C340.6 164.816 340.745 161.146 340.694 157.476C340.66 159.989 340.473 162.501 340.278 165.009Z" fill="black"/>
<path d="M39.0858 350.102C39.0858 350.102 39.7756 349.334 38.4783 349.03V347.767H39.2593C39.2576 346.242 38.7323 344.763 37.7712 343.579C36.8101 342.394 35.4714 341.575 33.979 341.259V339.728H34.1829V337.736H29.1629V339.728H29.3061V341.277C27.8277 341.608 26.5064 342.433 25.5599 343.616C24.6135 344.799 24.0984 346.27 24.0996 347.785H24.7894V348.995C24.7894 348.995 23.145 349.772 24.7894 351.165C26.4338 352.557 26.1779 353.564 26.1779 353.564C26.1779 353.564 25.488 356.167 24.1039 356.506V380.642C24.1033 381.347 24.2416 382.045 24.5109 382.696C24.7801 383.347 25.1751 383.939 25.6731 384.437C26.1711 384.936 26.7625 385.331 27.4134 385.601C28.0643 385.871 28.762 386.01 29.4667 386.01H33.7057C35.1291 386.01 36.4942 385.444 37.5008 384.438C38.5073 383.431 39.0728 382.066 39.0728 380.642V356.506C39.0728 356.506 36.6474 354.688 37.0812 353.564C37.6633 352.362 38.3333 351.205 39.0858 350.102V350.102Z" fill="#464353"/>
</g>
<defs>
<linearGradient id="paint0_linear" x1="240.927" y1="390.266" x2="240.927" y2="125.209" gradientUnits="userSpaceOnUse">
<stop stop-color="#808080" stop-opacity="0.25"/>
<stop offset="0.54" stop-color="#808080" stop-opacity="0.12"/>
<stop offset="1" stop-color="#808080" stop-opacity="0.1"/>
</linearGradient>
<clipPath id="clip0">
<rect width="499.881" height="334.565" fill="white" transform="translate(0.119141 82.2678)"/>
</clipPath>
</defs>
</svg>
