<svg width="500" height="500" viewBox="0 0 500 500" fill="none" xmlns="http://www.w3.org/2000/svg">
<g clip-path="url(#clip0)">
<path d="M498.623 368.369C498.623 353.559 491.108 341.553 481.838 341.553C476.012 341.553 470.88 346.297 467.87 353.498C466.854 353.076 465.764 352.857 464.663 352.855C461.857 352.855 459.262 354.293 457.147 356.726C454.434 347.747 448.681 341.553 442.022 341.553C435.797 341.553 430.367 346.972 427.469 355.015C425.859 353.656 423.83 352.894 421.724 352.855C414.61 352.855 408.843 362.069 408.843 373.434C408.813 377.223 409.502 380.983 410.872 384.516H495.238C497.362 380.024 498.623 374.432 498.623 368.369Z" fill="#E53E3E"/>
<path d="M438.447 213.519C425.229 184.924 399.36 160.53 368.11 156.554C359.847 155.503 351.22 155.924 343.554 159.181C333.49 163.455 326.074 172.084 318.578 180.043C302.707 196.891 284.947 211.853 265.649 224.633C256.125 230.939 245.908 236.822 234.6 238.436C211.927 241.671 189.5 226.209 179.16 205.773C172.701 193.008 169.716 178.02 164.494 164.742C158.481 164.73 151.316 164.732 143.608 164.768C122.301 164.866 104.959 165.181 104.959 165.181C104.959 165.181 125.573 137.875 143.53 147.992C149.269 151.225 155.28 154.11 160.803 156.54C157.665 150.504 153.707 145.072 148.262 140.706C137.524 132.095 122.981 129.68 109.233 130.321C94.7959 130.994 80.2261 134.859 68.4949 143.301C47.5965 158.339 38.9663 184.808 31.5801 209.473L49.4337 218.423C57.0918 211.802 68.2903 205.253 78.6122 211.068C96.5694 221.185 117.198 227.902 117.198 227.902C117.198 227.902 99.9959 227.746 78.6895 227.844C75.111 227.861 71.6487 227.884 68.3572 227.91L266.576 327.28C331.954 328.201 381.25 324.665 443.374 327.28C446.614 327.416 453.902 310.432 453.926 305.963C454.097 274.461 451.666 242.114 438.447 213.519ZM374.965 222.089C353.658 222.187 336.316 222.502 336.316 222.502C336.316 222.502 356.93 195.196 374.888 205.313C392.845 215.43 413.473 222.147 413.473 222.147C413.473 222.147 396.271 221.991 374.965 222.089L374.965 222.089Z" fill="#F2F2F2"/>
<path opacity="0.3" d="M430.482 315.54C430.482 304.771 423.815 296.042 415.59 296.042C410.421 296.042 405.869 299.492 403.199 304.727C402.282 304.418 401.321 304.26 400.353 304.259C397.85 304.302 395.461 305.31 393.685 307.074C391.278 300.546 386.174 296.042 380.267 296.042C374.743 296.042 369.926 299.982 367.355 305.83C365.847 304.818 364.075 304.272 362.259 304.259C355.947 304.259 350.83 310.959 350.83 319.223C350.812 322.01 351.428 324.766 352.631 327.28H427.479C429.486 323.695 430.521 319.648 430.482 315.54V315.54Z" fill="#E53E3E"/>
<path d="M498.622 385.292H39.1309V384.371H498.162L498.622 385.292Z" fill="#2F2E41"/>
<path d="M460.869 328.201H1.37695V327.28H460.408L460.869 328.201Z" fill="#2F2E41"/>
<path d="M196.422 243.439C196.422 243.439 199.316 222.217 204.139 228.005C208.962 233.792 204.139 242.474 204.139 242.474L200.28 247.297L196.422 244.403V243.439Z" fill="#FFB8B8"/>
<path d="M184.847 250.191C184.847 250.191 194.493 239.58 196.423 241.509C198.352 243.439 204.14 244.403 203.175 248.262C202.21 252.12 181.953 264.661 181.953 264.661L184.847 250.191Z" fill="#E53E3E"/>
<path opacity="0.1" d="M184.847 250.191C184.847 250.191 194.493 239.58 196.423 241.509C198.352 243.439 204.14 244.403 203.175 248.262C202.21 252.12 181.953 264.661 181.953 264.661L184.847 250.191Z" fill="black"/>
<path d="M129.863 249.227V256.944C129.863 256.944 128.898 274.307 134.686 273.343C140.474 272.378 137.58 257.908 137.58 257.908L136.615 249.227H129.863Z" fill="#FFB8B8"/>
<path d="M132.756 305.176C132.756 305.176 124.074 318.68 121.18 319.645C118.286 320.61 102.852 329.291 100.923 337.973L87.418 355.337L94.1704 364.018C94.1704 364.018 125.039 331.221 133.721 328.327C142.402 325.433 151.084 310.963 151.084 310.963L132.756 305.176Z" fill="#FFB8B8"/>
<path d="M201.245 282.989C201.245 282.989 219.573 285.883 216.679 297.458C213.785 309.034 185.811 333.15 185.811 333.15L184.846 338.938L174.235 340.867L169.412 336.044L170.377 333.15C170.377 333.15 181.952 322.539 182.917 318.68C183.882 314.822 194.493 299.388 199.316 298.423L192.563 294.564L201.245 282.989Z" fill="#FFB8B8"/>
<path d="M90.312 355.337C90.312 355.337 94.1705 349.549 88.3827 350.513C82.5949 351.478 78.7363 352.443 78.7363 356.301C78.7363 360.16 83.5595 387.17 89.3473 385.24C95.1352 383.311 90.312 374.629 90.312 374.629C90.312 374.629 93.2059 366.912 95.1352 365.948C97.0644 364.983 97.0644 360.16 95.1352 360.16C93.2059 360.16 89.3473 357.266 90.312 355.337Z" fill="#2F2E41"/>
<path d="M172.305 334.115C172.305 334.115 172.305 329.292 168.447 334.115C164.588 338.938 162.659 342.797 166.517 345.69C170.376 348.584 183.881 355.337 183.881 355.337C183.881 355.337 198.35 358.231 196.421 351.478C196.421 351.478 186.775 346.655 186.775 342.797C186.775 338.938 186.775 332.186 183.881 334.115C180.987 336.044 172.305 337.009 172.305 334.115Z" fill="#2F2E41"/>
<path d="M153.978 261.767C153.978 261.767 140.473 263.696 141.437 282.989C141.437 282.989 124.074 300.353 128.897 306.14C133.72 311.928 144.331 322.539 148.19 319.645C152.048 316.751 163.624 294.565 163.624 294.565C163.624 294.565 190.634 304.211 195.457 299.388C200.28 294.565 205.104 282.989 205.104 282.989L180.988 270.449L153.978 261.767Z" fill="#2F2E41"/>
<path d="M191.599 206.783C197.992 206.783 203.175 201.6 203.175 195.207C203.175 188.814 197.992 183.631 191.599 183.631C185.206 183.631 180.023 188.814 180.023 195.207C180.023 201.6 185.206 206.783 191.599 206.783Z" fill="#FFB8B8"/>
<path d="M182.917 196.172C182.917 196.172 176.165 206.783 174.235 207.747C172.306 208.712 187.74 218.358 187.74 218.358C187.74 218.358 187.74 205.818 192.563 202.924L182.917 196.172Z" fill="#FFB8B8"/>
<path d="M181.951 206.783C181.951 206.783 166.517 201.959 163.623 209.676C160.729 217.394 153.977 231.863 154.942 241.51C155.906 251.156 157.835 249.227 154.942 252.121C152.048 255.014 150.118 253.085 151.083 256.944C152.048 260.802 153.012 260.802 152.048 262.732C151.083 264.661 163.623 271.413 174.234 272.378L184.845 273.343C184.845 273.343 184.845 255.979 186.775 252.121C188.704 248.262 192.562 240.545 192.562 237.651V229.994C192.562 224.897 191.232 219.889 188.704 215.464V215.464C188.704 215.464 182.916 206.783 181.951 206.783Z" fill="#E53E3E"/>
<path d="M170.376 210.641C170.376 210.641 134.684 213.535 130.825 223.181C126.967 232.828 125.038 252.121 128.896 252.121C132.755 252.121 137.578 254.05 138.543 252.121C139.507 250.191 143.366 230.898 144.33 230.898C145.295 230.898 174.234 228.005 174.234 228.005C174.234 228.005 186.774 212.57 170.376 210.641Z" fill="#E53E3E"/>
<path d="M192.064 192.337C192.064 192.337 195.135 186.999 198.975 191.636C202.815 196.273 209.061 187.752 208.103 185.933C207.144 184.115 203.757 186.015 197.954 184.118C192.151 182.221 180.972 178.356 179.1 190.963C177.228 203.57 181.686 202.248 181.686 202.248C181.686 202.248 183.73 191.077 185.577 194.286L187.425 197.495L189.027 197.889L192.064 192.337Z" fill="#2F2E41"/>
<path d="M301.248 162.798C309.048 162.798 315.371 156.475 315.371 148.675C315.371 140.876 309.048 134.552 301.248 134.552C293.448 134.552 287.125 140.876 287.125 148.675C287.125 156.475 293.448 162.798 301.248 162.798Z" fill="#2F2E41"/>
<path d="M296.733 159.129C296.733 159.129 297.463 172.284 296.002 172.284C294.54 172.284 305.137 178.496 305.137 178.496L311.714 174.841V170.457C311.714 170.457 302.945 169.36 306.599 159.859C310.253 150.359 296.733 159.129 296.733 159.129Z" fill="#9F616A"/>
<path d="M266.038 303.468L264.941 314.43L268.596 315.526L271.519 312.603L272.615 303.468H266.038Z" fill="#9F616A"/>
<path d="M318.658 309.68L320.485 316.622L325.601 319.911L331.082 316.988L324.87 306.756L318.658 309.68Z" fill="#9F616A"/>
<path d="M300.204 164.793C306.057 164.793 310.801 160.048 310.801 154.196C310.801 148.343 306.057 143.599 300.204 143.599C294.352 143.599 289.607 148.343 289.607 154.196C289.607 160.048 294.352 164.793 300.204 164.793Z" fill="#9F616A"/>
<path d="M293.81 193.843L291.252 192.747C291.252 192.747 286.867 190.189 286.502 185.073C286.137 179.958 290.156 173.38 290.156 173.38L296.003 171.553L302.872 177.144L302.946 186.17L293.81 193.843Z" fill="#9F616A"/>
<path d="M291.253 174.111L289.791 173.38C289.791 173.38 282.483 173.014 281.752 181.784C281.021 190.554 278.463 205.171 278.463 205.171C278.463 205.171 272.617 215.403 272.982 226.365L270.059 235.866C270.059 235.866 266.039 249.752 270.79 249.752C275.54 249.752 275.175 234.77 275.175 234.77C275.175 234.77 283.945 213.575 284.675 209.921C285.406 206.267 291.618 189.093 289.791 184.342C287.964 179.592 291.253 174.111 291.253 174.111Z" fill="#9F616A"/>
<path d="M296.733 197.132V201.151C296.733 201.151 299.291 204.075 298.194 205.902C297.098 207.729 296.002 211.383 296.002 211.383L301.118 219.422L318.292 220.884L321.708 198.002L296.733 197.132Z" fill="#9F616A"/>
<path d="M312.812 171.553L315.736 170.091C315.736 170.091 321.948 165.706 327.064 164.975L342.777 154.378L353.008 129.896C353.008 129.896 352.643 116.741 355.566 118.202C358.489 119.664 358.124 130.992 358.124 130.992C358.124 130.992 352.643 153.647 347.892 159.86C343.142 166.072 325.967 176.303 325.967 176.303C325.967 176.303 321.217 181.784 321.582 184.342C321.948 186.9 312.812 171.553 312.812 171.553Z" fill="#9F616A"/>
<path d="M299.292 211.383C299.292 211.383 295.273 208.825 292.715 213.21C290.157 217.595 285.406 218.691 282.483 231.846C279.56 245.001 272.617 265.83 270.79 267.291C268.963 268.753 261.289 284.101 265.674 305.66H272.982L279.194 274.6C279.194 274.6 299.292 249.752 300.754 239.52L307.331 277.888C307.331 277.888 307.697 292.505 313.178 299.448L319.024 313.334L326.698 309.68L317.928 274.6C317.928 274.6 322.313 239.155 319.39 229.288L318.97 216.354C318.97 216.354 306.966 216.864 299.292 211.383Z" fill="#2F2E41"/>
<path d="M268.597 312.603H264.212C263.481 312.603 257.634 317.353 260.192 319.911C262.75 322.469 266.77 327.219 266.77 327.219C266.77 327.219 281.021 329.032 281.386 326.474C281.752 323.916 275.174 318.45 275.174 318.45L273.347 312.603C273.347 312.603 269.693 308.583 268.597 312.603Z" fill="#2F2E41"/>
<path d="M326.698 316.257C326.698 316.257 320.486 315.892 319.389 315.526C318.293 315.161 316.101 325.027 319.389 325.758C322.678 326.489 336.198 327.585 336.198 327.585C336.198 327.585 346.795 327.22 346.065 324.296C345.334 321.373 331.083 315.526 331.083 315.526C331.083 315.526 329.255 311.872 326.698 316.257Z" fill="#2F2E41"/>
<path d="M297.829 171.188L296.002 170.091L293.81 171.918C293.81 171.918 300.387 176.303 298.926 180.323C297.464 184.343 291.252 192.747 291.252 192.747C291.252 192.747 296.733 198.959 296.733 201.152C296.733 201.152 310.984 196.036 321.581 201.152C321.581 201.152 321.581 193.843 323.043 192.382C324.505 190.92 325.236 185.804 321.581 181.419C319.007 178.193 316.686 174.772 314.639 171.188L310.984 168.995L309.102 169.592C309.102 169.592 312.811 173.746 309.157 174.111C305.503 174.476 299.656 173.38 297.829 171.188Z" fill="#E53E3E"/>
<path d="M311.569 124.597C310.327 125.983 308.627 126.873 306.781 127.105C303.589 127.561 306.097 132.577 306.097 132.577C306.097 132.577 305.185 130.753 307.009 129.157C308.833 127.561 311.569 126.649 311.569 124.597Z" fill="#2F2E41"/>
<path d="M305.416 137.562C307.59 137.562 309.352 135.8 309.352 133.626C309.352 131.453 307.59 129.69 305.416 129.69C303.243 129.69 301.48 131.453 301.48 133.626C301.48 135.8 303.243 137.562 305.416 137.562Z" fill="#2F2E41"/>
<path d="M310.01 137.502C306.969 135.914 301.738 134.664 298.959 134.754L299.662 132.066C302.122 133.738 307.326 135.01 310.713 134.814L310.01 137.502Z" fill="#E53E3E"/>
<path d="M303.728 137.739C303.728 137.739 298.937 143.899 289.354 145.268C279.771 146.637 287.3 161.696 287.3 161.696C287.3 161.696 284.562 156.22 290.038 151.428C295.514 146.637 303.728 143.899 303.728 137.739Z" fill="#2F2E41"/>
<path d="M304.093 137.373C304.093 137.373 306.831 146.956 310.938 148.325C315.045 149.694 312.992 164.068 306.147 165.437C306.147 165.437 311.965 157.566 308.543 151.405C305.12 145.245 303.067 140.453 304.093 137.373Z" fill="#2F2E41"/>
<path d="M368.538 121.308H343.324V124.232H368.538V121.308Z" fill="#2F2E41"/>
<path d="M368.538 131.54C369.749 131.54 370.731 127.613 370.731 122.77C370.731 117.926 369.749 114 368.538 114C367.327 114 366.346 117.926 366.346 122.77C366.346 127.613 367.327 131.54 368.538 131.54Z" fill="#2F2E41"/>
<path d="M343.323 131.54C344.534 131.54 345.516 127.613 345.516 122.77C345.516 117.926 344.534 114 343.323 114C342.112 114 341.131 117.926 341.131 122.77C341.131 127.613 342.112 131.54 343.323 131.54Z" fill="#2F2E41"/>
<path d="M381.327 317.909H356.113V320.832H381.327V317.909Z" fill="#2F2E41"/>
<path d="M381.327 328.14C382.538 328.14 383.52 324.214 383.52 319.37C383.52 314.527 382.538 310.6 381.327 310.6C380.116 310.6 379.135 314.527 379.135 319.37C379.135 324.214 380.116 328.14 381.327 328.14Z" fill="#2F2E41"/>
<path d="M356.114 328.14C357.325 328.14 358.307 324.214 358.307 319.37C358.307 314.527 357.325 310.6 356.114 310.6C354.903 310.6 353.922 314.527 353.922 319.37C353.922 324.214 354.903 328.14 356.114 328.14Z" fill="#2F2E41"/>
<path opacity="0.3" d="M90.6986 315.54C90.6986 304.771 84.0316 296.042 75.8073 296.042C70.6381 296.042 66.0855 299.492 63.4154 304.727C62.4985 304.418 61.5374 304.26 60.5696 304.259C58.067 304.302 55.6777 305.31 53.9017 307.074C51.4948 300.546 46.391 296.042 40.4836 296.042C34.9603 296.042 30.1429 299.982 27.5721 305.83C26.0641 304.818 24.2917 304.272 22.4755 304.259C16.1639 304.259 11.0473 310.959 11.0473 319.223C11.0288 322.01 11.6445 324.766 12.8478 327.28H87.6954C89.7025 323.695 90.7378 319.648 90.6986 315.54V315.54Z" fill="#E53E3E"/>
</g>
<defs>
<clipPath id="clip0">
<rect width="497.245" height="271.339" fill="white" transform="translate(1.37695 114)"/>
</clipPath>
</defs>
</svg>
