<svg width="500" height="500" viewBox="0 0 500 500" fill="none" xmlns="http://www.w3.org/2000/svg">
<g clip-path="url(#clip0)">
<path d="M117.195 370.155C117.195 370.155 127.361 380.321 121.623 395.405C115.885 410.49 131.461 435.581 131.461 435.581L130.964 435.501C110.082 431.818 99.6935 407.933 111.318 390.193C115.676 383.602 119.215 375.863 117.195 370.155Z" fill="#E53E3E"/>
<path d="M117.195 370.155C117.195 370.155 122.933 382.619 117.195 392.784C111.457 402.95 116.202 431.501 131.46 435.581" stroke="#535461" stroke-width="0.496363" stroke-miterlimit="10"/>
<path d="M99.1074 411.279C99.1074 411.279 110.707 409.432 111.765 419.826C112.822 430.22 134.071 431.664 134.071 431.664L133.674 431.927C116.128 443.448 99.3556 439.264 101.907 423.986C102.8 418.287 102.746 412.574 99.1074 411.279Z" fill="#E53E3E"/>
<path opacity="0.2" d="M99.1074 411.279C99.1074 411.279 110.707 409.432 111.765 419.826C112.822 430.22 134.071 431.664 134.071 431.664L133.674 431.927C116.128 443.448 99.3556 439.264 101.907 423.986C102.8 418.287 102.746 412.574 99.1074 411.279Z" fill="#F5F5F5"/>
<path d="M99.1074 411.279C99.1074 411.279 108.111 413.264 107.372 421.444C106.632 429.624 120.744 439.447 134.071 431.669" stroke="#535461" stroke-width="0.496363" stroke-miterlimit="10"/>
<path opacity="0.1" d="M440.362 235.839C446.04 247.499 442.426 264.226 450.467 273.756C456.364 280.745 466.153 280.706 472.839 286.602C478.04 291.204 480.631 298.734 482.989 305.881L494.445 340.627C499.662 356.451 504.119 376.821 493.611 388.421C487.313 395.371 477.797 396.16 469.195 395.42C406.936 390.064 356.858 327.274 294.813 319.169C250.959 313.436 207.632 335.991 163.525 334.745C140.196 334.085 117.418 326.803 94.9075 319.536C77.5943 313.962 58.3801 306.631 50.1255 287.838C46.4376 279.44 45.291 269.294 39.8111 262.39C35.6119 257.094 29.5414 254.587 24.3246 250.75C1.60105 234.018 -1.00485 196.592 0.975638 165.078C2.0726 147.596 3.929 129.697 10.8433 114.181C17.7577 98.6643 30.7674 85.8333 45.6186 85.327C55.0098 85.0044 63.984 89.4816 73.1221 91.9832C82.2601 94.4849 92.9766 94.5594 99.8363 87.0196C105.465 80.8299 107.232 70.8878 112.861 64.6832C117.244 59.8635 123.359 57.9923 129.271 56.8457C161.063 50.6808 194.93 61.3824 219.862 85.466C225.923 91.3181 231.695 98.0686 239.101 101.072C248.964 105.067 259.745 101.682 270.173 101.767C306.964 102.064 331.916 141.883 357.846 166.984C373.005 181.661 387.668 184.823 404.117 194.601C414.297 200.657 434.221 223.237 440.362 235.839Z" fill="#E53E3E"/>
<path d="M151.429 232.221H129.172V435.551H151.429V232.221Z" fill="url(#paint0_linear)"/>
<path d="M175.706 444.654H105.902L130.691 428.974H149.404L175.706 444.654Z" fill="url(#paint1_linear)"/>
<path d="M31.0449 128.029C31.0449 128.029 125.136 34.9759 247.023 128.029V208.44C247.023 208.44 151.428 266.103 31.0499 208.44L31.0449 128.029Z" fill="url(#paint2_linear)"/>
<path d="M37.875 130.074C37.875 130.074 126.004 42.8926 240.193 130.074V205.412C240.193 205.412 150.644 259.426 37.875 205.412V130.074Z" fill="url(#paint3_linear)"/>
<path d="M165.585 174.563H111.973V220.085H165.585V174.563Z" fill="url(#paint4_linear)"/>
<path d="M161.032 178.425H116.523V216.218H161.032V178.425Z" fill="url(#paint5_linear)"/>
<g opacity="0.1">
<path opacity="0.1" d="M157.543 289.461L140.632 260.325L125.632 288.439L112.617 258.975L99.0765 288.975L98.6049 288.786C104.065 272.843 98.6496 227.649 98.6049 227.193L98.3965 225.5L112.632 257.729L124.5 231.422L140.647 259.253L155.414 231.536L167.922 260.082L180.063 227.436L183.101 226.83L183.031 227.198C182.942 227.664 174.648 271.374 179.363 286.195L180.485 288.757L180.038 288.99C179.553 288.163 179.167 287.281 178.887 286.364L167.967 261.432L157.543 289.461ZM140.91 259.784L157.439 288.28L167.669 260.777L155.369 232.707L140.91 259.784ZM112.875 258.339L125.632 287.282L140.314 259.794L124.525 232.529L112.875 258.339ZM99.2651 228.776C100.129 236.559 103.489 269.761 99.9352 285.783L112.344 258.339L99.2651 228.776ZM168.22 260.767L178.182 283.5C175.154 267.319 181.656 231.824 182.471 227.485L180.45 227.888L168.22 260.767Z" fill="url(#paint6_linear)"/>
</g>
<g opacity="0.1">
<path opacity="0.1" d="M113.482 289.526L100.934 258.111L101.405 257.922L113.506 288.201L125.633 260.528L109.466 230.826L109.908 230.583L125.886 259.943L138.002 232.305H138.151L174.127 228.905L140.802 288.384L125.945 261.084L113.482 289.526ZM126.203 260.504L140.806 287.337L173.224 229.486L138.359 232.782L126.203 260.504Z" fill="url(#paint7_linear)"/>
</g>
<g opacity="0.1">
<path opacity="0.1" d="M167.139 287.967L166.88 287.471L137.039 229.808L137.491 229.575L167.074 286.736L178.193 257.927L178.664 258.111L167.139 287.967Z" fill="url(#paint8_linear)"/>
</g>
<path d="M139.795 219.578C116.049 219.578 96.8047 222.75 96.8047 226.661C96.8047 230.573 116.054 233.745 139.795 233.745C163.536 233.745 182.785 230.573 182.785 226.661C182.785 222.75 163.536 219.578 139.795 219.578ZM139.795 230.707C118.004 230.707 100.344 228.667 100.344 226.155C100.344 223.644 118.004 221.608 139.795 221.608C161.585 221.608 179.241 223.639 179.241 226.155C179.241 228.672 161.58 230.707 139.795 230.707V230.707Z" fill="url(#paint9_linear)"/>
<g opacity="0.2">
<path opacity="0.2" d="M139.795 219.578C116.049 219.578 96.8047 222.75 96.8047 226.661C96.8047 230.573 116.054 233.745 139.795 233.745C163.536 233.745 182.785 230.573 182.785 226.661C182.785 222.75 163.536 219.578 139.795 219.578ZM139.795 230.707C118.004 230.707 100.344 228.667 100.344 226.155C100.344 223.644 118.004 221.608 139.795 221.608C161.585 221.608 179.241 223.639 179.241 226.155C179.241 228.672 161.58 230.707 139.795 230.707V230.707Z" fill="url(#paint10_linear)"/>
</g>
<path d="M139.795 218.064C116.049 218.064 96.8047 221.236 96.8047 225.148C96.8047 229.059 116.054 232.231 139.795 232.231C163.536 232.231 182.785 229.059 182.785 225.148C182.785 221.236 163.536 218.064 139.795 218.064ZM139.795 229.193C118.004 229.193 100.344 227.153 100.344 224.641C100.344 222.13 118.009 220.09 139.795 220.09C161.58 220.09 179.241 222.105 179.241 224.636C179.241 227.168 161.58 229.188 139.795 229.188V229.193Z" fill="url(#paint11_linear)"/>
<path d="M151.195 232.846H129.355V432.384H151.195V232.846Z" fill="#E8EAF1"/>
<path d="M175.022 441.319H106.523L130.845 425.931H149.211L175.022 441.319Z" fill="#E8EAF1"/>
<path d="M33.0605 130.595C33.0605 130.595 125.384 39.2643 245.008 130.595V209.517C245.008 209.517 151.195 266.102 33.0605 209.517V130.595Z" fill="#E8EAF1"/>
<path d="M39.7617 132.605C39.7617 132.605 126.248 47.0473 238.307 132.605V206.534C238.307 206.534 150.451 259.54 39.7617 206.534V132.605Z" fill="#F3F5F7"/>
<path d="M165.095 176.261H112.48V220.933H165.095V176.261Z" fill="white"/>
<path d="M160.627 180.053H116.947V217.141H160.627V180.053Z" fill="#F3F5F7"/>
<path opacity="0.1" d="M157.201 289.02L140.603 260.409L125.856 288.012L113.084 259.099L99.8214 288.543L99.3598 288.359C104.74 272.709 99.4044 228.359 99.3598 227.912L99.1562 226.25L113.129 257.878L124.779 232.067L140.622 259.367L155.151 232.166L167.426 260.181L179.339 228.141L182.317 227.545L182.247 227.907C182.158 228.369 174.018 271.26 178.649 285.808L179.751 288.32L179.309 288.548C178.832 287.737 178.453 286.872 178.177 285.972L167.456 261.501L157.201 289.02ZM140.881 259.893L157.102 287.858L167.138 260.871L155.072 233.323L140.881 259.893ZM113.362 258.493L125.9 286.885L140.295 259.908L124.783 233.164L113.362 258.493ZM100.005 229.481C100.854 237.115 104.15 269.686 100.66 285.426L112.816 258.493L100.005 229.481ZM167.674 260.856L177.448 283.158C174.469 267.274 180.853 232.444 181.657 228.19L179.671 228.587L167.674 260.856Z" fill="black"/>
<path opacity="0.1" d="M113.959 289.084L101.645 258.255L102.106 258.071L113.984 287.798L125.897 260.627L110.013 231.481L110.45 231.243L126.13 260.032L138.043 232.911H138.187L173.493 229.575L140.768 287.962L126.19 261.159L113.959 289.084ZM126.443 260.603L140.773 286.935L172.59 230.161L138.375 233.392L126.443 260.603Z" fill="black"/>
<path opacity="0.1" d="M166.618 287.555L166.36 287.064L137.074 230.478L137.516 230.25L166.548 286.344L177.463 258.071L177.925 258.25L166.618 287.555Z" fill="black"/>
<path d="M139.779 220.437C116.479 220.437 97.5879 223.549 97.5879 227.386C97.5879 231.223 116.479 234.335 139.779 234.335C163.078 234.335 181.97 231.223 181.97 227.386C181.97 223.549 163.078 220.437 139.779 220.437ZM139.779 231.357C118.395 231.357 101.062 229.372 101.062 226.89C101.062 224.408 118.395 222.422 139.779 222.422C161.162 222.422 178.495 224.408 178.495 226.89C178.495 229.372 161.162 231.357 139.779 231.357Z" fill="#5F546F"/>
<path opacity="0.2" d="M139.779 220.437C116.479 220.437 97.5879 223.549 97.5879 227.386C97.5879 231.223 116.479 234.335 139.779 234.335C163.078 234.335 181.97 231.223 181.97 227.386C181.97 223.549 163.078 220.437 139.779 220.437ZM139.779 231.357C118.395 231.357 101.062 229.372 101.062 226.89C101.062 224.408 118.395 222.422 139.779 222.422C161.162 222.422 178.495 224.408 178.495 226.89C178.495 229.372 161.162 231.357 139.779 231.357Z" fill="black"/>
<path d="M139.779 218.948C116.479 218.948 97.5879 222.06 97.5879 225.897C97.5879 229.734 116.479 232.846 139.779 232.846C163.078 232.846 181.97 229.734 181.97 225.897C181.97 222.06 163.078 218.948 139.779 218.948ZM139.779 229.868C118.395 229.868 101.062 227.883 101.062 225.401C101.062 222.919 118.395 220.933 139.779 220.933C161.162 220.933 178.495 222.919 178.495 225.401C178.495 227.883 161.162 229.868 139.779 229.868Z" fill="#5F546F"/>
<path opacity="0.1" d="M293.984 420.65C280.537 424.427 265.721 420.566 252.478 425.003C251.312 425.333 250.222 425.89 249.271 426.641C246.105 429.406 247.355 434.801 250.185 437.909C254.707 442.872 261.814 444.421 268.491 445.086C301.102 448.327 333.718 436.534 366.368 439.016C371.223 439.388 376.881 439.79 380.138 436.171C382.54 433.506 382.704 429.396 381.517 426.011C379.338 419.796 373.318 415.552 366.979 413.771C360.64 411.989 353.925 412.281 347.343 412.574C338.408 412.981 329.399 412.867 320.49 413.458C310.964 414.113 303.008 418.134 293.984 420.65Z" fill="#E53E3E"/>
<path d="M371.83 346.692C368.355 346.196 361.932 340.736 361.932 340.736C361.467 340.039 360.83 339.474 360.084 339.095C359.337 338.715 358.506 338.533 357.669 338.567L351.29 329.597C348.818 325.349 345.885 321.385 342.544 317.779C341.998 317.173 341.434 316.586 340.852 316.017C339.131 314.306 337.283 312.73 335.322 311.301C334.032 310.34 332.815 309.284 331.679 308.144C330.629 307.099 329.635 305.999 328.701 304.849L324.263 298.634L323.966 298.212C324.079 297.605 324.109 296.986 324.055 296.371C324.055 296.227 324.025 296.083 324.005 295.939L305.689 274.407L300.229 263.268C300.165 263.323 299.947 263.506 299.604 263.765L299.505 263.482V263.353V262.414C299.477 254.705 301.391 247.112 305.069 240.336C306.304 238.062 306.951 235.514 306.95 232.926C306.95 232.717 306.95 232.509 306.95 232.3L306.856 232.196C306.682 232.002 306.285 231.556 305.774 230.895C305.838 230.766 305.908 230.632 305.972 230.508C308.246 226.329 311.408 225.614 311.408 225.614C322.05 224.125 329.723 216.953 329.723 216.953C337.665 212.485 336.176 208.514 336.176 208.514L328.999 191.191L324.531 182.033L323.295 177.824C322.891 175.025 322.319 172.252 321.583 169.52C320.526 165.49 315.259 164.343 312.718 167.644C312.658 167.723 312.594 167.808 312.534 167.897C311.409 169.523 310.931 171.51 311.194 173.47C311.456 175.43 312.44 177.222 313.954 178.494C316.436 180.609 318.595 182.778 318.595 182.778C323.062 184.014 326.04 207.03 326.04 207.03L323.062 209.016C320.778 209.134 318.544 209.725 316.499 210.75C314.455 211.775 312.645 213.213 311.184 214.972H301.843C301.843 214.932 301.867 214.893 301.882 214.848L300.334 214.501L295.866 213.508L294.214 213.136L294.189 213.24L293.722 213.136V213.2C293.095 212.206 292.531 211.173 292.035 210.108C292.168 210.128 292.303 210.128 292.437 210.108C292.471 210.033 292.501 209.959 292.526 209.884H292.685C293.375 208.395 292.779 206.534 293.444 205.015C293.803 204.374 294.201 203.756 294.635 203.164C295.628 201.451 295.509 199.307 295.216 197.341C294.899 195.227 294.412 193.068 293.196 191.305C291.98 189.543 289.88 188.253 287.736 188.531C286.048 188.754 284.569 189.911 282.872 190.02C281.67 190.089 280.519 189.618 279.397 189.251C278.169 188.855 276.908 188.568 275.63 188.392C274.781 188.273 273.783 188.258 273.212 188.888L273.163 188.953C273.091 189.008 273.025 189.069 272.964 189.136C272.74 189.416 272.572 189.736 272.468 190.079L271.371 193.102C271.314 193.205 271.285 193.32 271.285 193.437C271.285 193.555 271.314 193.67 271.371 193.772C271.47 193.896 271.644 193.931 271.778 194.016C272.647 194.577 271.48 195.961 272.2 196.641C272.632 197.048 273.555 197.093 274.468 197.088C273.637 198.398 273.134 199.888 273.002 201.433C272.869 202.978 273.111 204.532 273.706 205.964C274.302 207.396 275.234 208.663 276.423 209.658C277.613 210.654 279.024 211.347 280.539 211.681C280.539 211.845 280.539 212.009 280.539 212.178C280.562 213.487 280.459 214.795 280.231 216.084V216.084L279.506 216.148C278.3 216.213 275.863 216.307 273.734 216.208C273.021 216.18 272.31 216.112 271.604 216.005C271.604 216.005 271.52 216.908 271.356 218.293L270.86 218.432C266.231 219.762 262.211 222.665 259.493 226.642L248.355 233.094C248.355 233.094 243.391 231.858 229.051 244.233L218.657 249.693C218.657 249.693 202.778 254.368 205.747 259.064C208.715 263.76 223.566 253.376 223.566 253.376L229.522 250.656L247.59 242.714C247.59 242.714 253.546 238.743 257.984 237.254C262.421 235.765 266.894 231.297 266.894 231.297L268.011 231.238L268.507 231.208C268.433 231.342 268.352 231.471 268.264 231.595C268.219 231.665 268.169 231.729 268.12 231.789V271.632L268.04 272.739H268.075L266.884 288.945C266.884 288.945 267.132 296.391 266.139 300.575C265.147 304.759 266.884 321.859 266.884 321.859C266.884 321.859 267.534 321.859 268.591 321.785L268.561 322.281L268.125 329.285C268.125 329.285 267.291 331.985 272.096 333.39C273.196 333.708 274.243 334.188 275.203 334.814L280.742 338.442L286.436 341.917L287.587 344.334L287.642 344.453L286.431 343.714C286.431 343.714 285.438 346.196 288.659 349.407C289.866 350.486 290.807 351.829 291.409 353.332C292.012 354.834 292.26 356.455 292.134 358.069C292.134 358.069 292.63 364.025 295.608 362.536C295.608 362.536 300.309 361.543 300.076 353.378C300.076 353.378 298.199 346.578 300.383 343.704C300.443 343.625 300.506 343.548 300.572 343.476C303.054 340.756 299.827 336.527 299.827 336.527C299.827 336.527 294.094 334.213 293.772 338.055L293.534 337.951C292.501 337.455 290.65 336.249 288.689 333.31C288.689 333.31 285.473 325.145 280.524 324.4L281.353 319.7L281.447 319.159C283.15 318.355 284.53 317.317 285.224 315.982L285.254 315.922V315.898V315.863V315.828V315.793L285.279 315.744V315.704L285.304 315.649L285.334 315.59V315.54L285.368 315.471L285.463 315.421L285.497 315.347L285.527 315.282L285.567 315.198L285.602 315.128L285.641 315.044L285.686 314.955L285.721 314.885L285.77 314.781L285.805 314.711L286.019 314.25L286.048 314.19L286.108 314.061L286.153 313.967L286.217 313.823L286.257 313.738L286.331 313.57L286.361 313.5L286.44 313.327L286.48 313.242L286.56 313.063L286.594 312.984L286.679 312.795L286.713 312.721L286.803 312.522L286.833 312.448L286.922 312.239L286.952 312.17L287.051 311.947V311.907C288.634 308.224 290.625 302.928 290.526 299.791C290.539 299.541 290.539 299.291 290.526 299.041H290.466V298.992C290.466 298.887 290.426 298.788 290.397 298.694L303.759 301.672L311.7 310.333H311.735H311.765H311.8H311.839H311.879L311.929 310.309H311.973L312.038 310.279L312.088 310.254L312.157 310.219L312.217 310.189L312.301 310.145L312.356 310.115L312.45 310.065L312.509 310.031L312.609 309.981L312.678 309.941L312.787 309.882L312.857 309.847L312.971 309.782L313.051 309.738L313.175 309.668L313.259 309.465L313.398 309.385L313.472 309.346L313.616 309.266L313.701 309.217L313.85 309.132L313.929 309.083L314.088 308.988L314.172 308.939L314.336 308.839L314.416 308.79L314.589 308.685H314.619L314.897 309.008L318.372 313.039C321.846 314.528 329.758 321.948 329.758 321.948C330.671 324.137 334.538 327.264 336.514 328.763C337.078 329.181 337.678 329.55 338.306 329.865C339.388 330.426 340.911 331.761 342.306 333.112C344.126 334.91 346.079 336.57 348.148 338.075C350.062 339.534 351.764 341.251 353.206 343.178V343.178L353.375 343.396C352.194 347.367 358.954 351.403 358.954 351.403C361.436 350.906 369.1 357.855 369.1 357.855C369.1 357.855 376.277 363.549 379.246 357.359C382.214 351.169 371.83 346.692 371.83 346.692ZM358.716 340.061L357.723 338.656C357.993 338.783 358.225 338.978 358.396 339.221C358.568 339.465 358.673 339.749 358.701 340.046L358.716 340.061Z" fill="url(#paint12_linear)"/>
<path d="M296.993 218.556C296.993 218.556 271.952 233.144 277.303 224.875C279.617 221.392 280.828 217.292 280.777 213.111C280.776 211.746 280.592 210.387 280.231 209.07L290.685 204.206C290.503 205.638 290.632 207.092 291.062 208.47C292.526 213.642 296.993 218.556 296.993 218.556Z" fill="#DB8B8B"/>
<path opacity="0.1" d="M291.045 208.475C290.053 210.247 288.519 211.654 286.668 212.49C284.817 213.325 282.746 213.544 280.761 213.116C280.76 211.751 280.576 210.392 280.215 209.075L290.668 204.211C290.487 205.643 290.616 207.097 291.045 208.475V208.475Z" fill="black"/>
<path d="M282.772 212.843C288.008 212.843 292.252 208.598 292.252 203.362C292.252 198.126 288.008 193.882 282.772 193.882C277.536 193.882 273.291 198.126 273.291 203.362C273.291 208.598 277.536 212.843 282.772 212.843Z" fill="#DB8B8B"/>
<path opacity="0.1" d="M276.71 198.319C277.626 198.507 278.435 199.04 278.968 199.808C279.594 200.801 279.579 202.161 280.457 202.935C281.12 203.425 281.949 203.635 282.766 203.521C283.572 203.404 284.39 203.375 285.203 203.436C286.518 203.65 287.595 204.623 288.325 205.735C288.988 206.888 289.579 208.081 290.092 209.308C290.302 209.795 290.602 210.238 290.975 210.614C291.164 210.8 291.394 210.94 291.647 211.021C291.9 211.102 292.168 211.122 292.43 211.08C293.11 209.591 292.524 207.785 293.174 206.301C293.526 205.672 293.915 205.065 294.341 204.484C295.333 202.801 295.199 200.697 294.907 198.766C294.594 196.686 294.117 194.566 292.921 192.839C291.725 191.112 289.665 189.861 287.58 190.114C285.922 190.332 284.468 191.469 282.8 191.568C281.624 191.638 280.487 191.176 279.365 190.814C278.16 190.425 276.922 190.143 275.668 189.97C274.834 189.856 273.856 189.836 273.295 190.467C273.072 190.74 272.904 191.053 272.799 191.39L271.721 194.368C271.666 194.469 271.637 194.583 271.637 194.698C271.637 194.813 271.666 194.927 271.721 195.028C271.821 195.147 271.99 195.182 272.119 195.271C272.972 195.822 271.826 197.182 272.531 197.852C273.235 198.522 275.722 198.086 276.71 198.319Z" fill="black"/>
<path d="M276.954 198.076C277.87 198.263 278.679 198.797 279.213 199.565C279.838 200.558 279.823 201.918 280.702 202.692C281.365 203.182 282.193 203.392 283.01 203.278C283.817 203.16 284.634 203.132 285.447 203.193C286.762 203.407 287.839 204.38 288.569 205.491C289.232 206.644 289.823 207.838 290.336 209.065C290.546 209.552 290.846 209.995 291.22 210.371C291.408 210.557 291.638 210.696 291.891 210.777C292.144 210.858 292.412 210.879 292.674 210.837C293.354 209.348 292.768 207.541 293.418 206.057C293.77 205.429 294.16 204.822 294.585 204.241C295.578 202.558 295.444 200.453 295.151 198.523C294.838 196.443 294.362 194.323 293.165 192.596C291.969 190.869 289.909 189.618 287.824 189.871C286.167 190.089 284.712 191.226 283.044 191.325C281.868 191.395 280.731 190.933 279.61 190.571C278.404 190.182 277.167 189.9 275.912 189.727C275.078 189.613 274.1 189.593 273.539 190.223C273.316 190.497 273.148 190.81 273.043 191.147L271.966 194.125C271.91 194.226 271.881 194.339 271.881 194.455C271.881 194.57 271.91 194.684 271.966 194.785C272.065 194.904 272.234 194.939 272.363 195.028C273.216 195.579 272.07 196.939 272.775 197.609C273.48 198.279 275.966 197.843 276.954 198.076Z" fill="#472727"/>
<path d="M329.083 217.826C329.083 217.826 321.548 224.875 311.095 226.334C311.095 226.334 307.988 227.039 305.754 231.144C304.94 232.687 304.363 234.343 304.042 236.058L292.824 217.052L292.129 215.875H310.847C312.284 214.15 314.063 212.742 316.071 211.738C318.079 210.734 320.274 210.157 322.516 210.043L325.435 208.097C325.435 208.097 322.516 185.488 318.143 184.272C318.143 184.272 316.009 182.138 313.582 180.063C312.092 178.812 311.123 177.05 310.864 175.121C310.606 173.193 311.078 171.238 312.187 169.639C312.247 169.555 312.306 169.47 312.371 169.391C314.852 166.15 320.039 167.277 321.082 171.238C321.806 173.928 322.368 176.66 322.764 179.418L323.981 183.552L328.358 192.546L335.407 209.562C335.407 209.562 336.861 213.453 329.083 217.826Z" fill="#DB8B8B"/>
<path d="M273.167 218.799L271.707 231.705L268.426 231.888L267.329 231.948C267.329 231.948 262.951 236.326 258.578 237.78C254.205 239.234 248.368 243.131 248.368 243.131L230.623 250.894L224.791 253.569C224.791 253.569 210.203 263.799 207.284 259.158C204.366 254.517 219.942 249.901 219.942 249.901L230.152 244.55C244.253 232.394 249.113 233.63 249.113 233.63L260.033 227.312C262.702 223.406 266.65 220.553 271.196 219.246C271.841 219.049 272.5 218.899 273.167 218.799V218.799Z" fill="#DB8B8B"/>
<path opacity="0.1" d="M305.754 231.144C304.941 232.686 304.363 234.343 304.042 236.057L292.824 217.052C293.092 216.681 293.326 216.287 293.524 215.875C293.811 215.293 294.037 214.683 294.199 214.054L295.822 214.421L300.215 215.414L301.739 215.756C301.739 215.796 301.709 215.836 301.699 215.875C299.654 221.881 303.511 228.17 305.754 231.144Z" fill="black"/>
<path opacity="0.1" d="M273.168 218.799L271.709 231.705L268.428 231.888C269.823 229.406 270.771 222.835 271.202 219.266C271.845 219.062 272.502 218.906 273.168 218.799V218.799Z" fill="black"/>
<path d="M304.87 240.554C301.223 247.273 299.344 254.809 299.41 262.454V263.407V263.531C299.41 263.531 302.085 270.823 299.41 270.823C296.734 270.823 296.978 274.471 293.578 275.201C290.177 275.93 278.26 281.033 274.617 278.849C270.973 276.665 268.541 272.044 268.541 272.044V232.414C268.591 232.355 268.64 232.29 268.685 232.221C270.785 229.242 271.946 216.833 271.946 216.833C272.64 216.94 273.339 217.008 274.041 217.037C276.13 217.136 278.508 217.037 279.709 216.977L280.454 216.933C282.553 218.575 285.417 218.814 286.837 218.814C287.335 218.816 287.833 218.852 288.326 218.923C292.431 219.499 293.682 214.044 293.682 214.044L295.305 214.411L299.698 215.404L301.222 215.746C298.487 223.494 305.689 231.779 306.597 232.781L306.692 232.886C306.769 235.558 306.14 238.203 304.87 240.554Z" fill="#E53E3E"/>
<path opacity="0.3" d="M274.046 217.057C274.046 220.278 273.276 230.955 268.551 232.499V232.414C268.6 232.355 268.65 232.29 268.695 232.221C270.794 229.243 271.956 216.833 271.956 216.833C272.648 216.947 273.345 217.021 274.046 217.057Z" fill="white"/>
<path opacity="0.3" d="M306.622 232.796C297.727 232.34 298.78 220.705 299.723 215.424L301.247 215.766C298.512 223.509 305.709 231.794 306.622 232.796Z" fill="white"/>
<g opacity="0.1">
<path opacity="0.1" d="M306.716 233.144C306.714 233.119 306.703 233.095 306.686 233.076C306.669 233.058 306.647 233.045 306.622 233.04C304.637 232.543 306.841 233.263 304.637 232.543C304.552 232.513 304.756 232.181 304.756 232.181C304.823 234.85 304.186 237.49 302.909 239.835C299.262 246.554 297.383 254.09 297.449 261.734V262.687V262.807C297.449 262.807 300.125 270.098 297.449 270.098C294.774 270.098 295.017 273.746 291.617 274.476C288.5 275.146 278.25 279.479 273.748 278.521C274.026 278.725 274.309 278.918 274.602 279.092C278.25 281.281 290.163 276.174 293.563 275.444C296.963 274.714 296.725 271.066 299.395 271.066C302.066 271.066 299.395 263.774 299.395 263.774V263.65V262.697C299.329 255.053 301.208 247.517 304.855 240.798C306.137 238.454 306.779 235.814 306.716 233.144V233.144Z" fill="black"/>
<path opacity="0.1" d="M281.044 217.449C280.93 217.369 280.811 217.285 280.701 217.201H280.443C280.642 217.3 280.845 217.374 281.044 217.449Z" fill="black"/>
</g>
<path d="M357.768 339.137L354.854 345.699C354.022 344.332 353.111 343.014 352.124 341.753V341.753C350.709 339.863 349.038 338.177 347.161 336.745C345.128 335.266 343.21 333.637 341.423 331.871C340.053 330.545 338.554 329.23 337.491 328.679C336.874 328.369 336.285 328.007 335.729 327.597C333.793 326.108 329.991 323.055 329.093 320.906C329.093 320.906 321.315 313.614 317.91 312.155L314.515 308.184L310.613 303.633L320.58 293.666L323.514 297.77L327.877 303.876C329.85 306.328 332.108 308.537 334.603 310.458C337.088 312.26 339.383 314.311 341.452 316.578C344.716 320.126 347.579 324.023 349.99 328.198L356.259 337.008L356.304 337.077L357.296 338.462L357.768 339.137Z" fill="#DB8B8B"/>
<path d="M296.02 339.867L292.128 349.104L288.971 345.699L287.671 342.969L286.539 340.592L280.945 337.187L275.485 333.623C274.542 333.008 273.514 332.537 272.433 332.223C267.712 330.843 268.526 328.193 268.526 328.193L268.958 321.313L269.256 316.523L282.161 315.064L281.516 318.712L280.702 323.328C285.566 324.058 288.723 332.079 288.723 332.079C290.644 334.963 292.466 336.159 293.483 336.636C293.748 336.769 294.028 336.871 294.317 336.938L296.02 339.867Z" fill="#DB8B8B"/>
<path opacity="0.1" d="M356.304 337.083L356.189 337.018H356.259L356.304 337.083Z" fill="black"/>
<path opacity="0.1" d="M357.767 339.137L354.853 345.699C354.021 344.331 353.11 343.014 352.123 341.753C352.57 342.18 355.067 344.453 355.866 342.379C356.172 341.532 356.525 340.704 356.923 339.897C357.17 339.467 357.295 338.978 357.285 338.482L357.767 339.137Z" fill="black"/>
<path opacity="0.1" d="M357.53 338.705L356.537 337.321L356.492 337.251L350.223 328.441C347.807 324.269 344.939 320.375 341.671 316.831C339.601 314.564 337.306 312.513 334.821 310.711C332.327 308.79 330.069 306.581 328.095 304.129L323.747 298.048L320.814 293.943L320.387 294.37L323.013 298.048L327.376 304.154C329.352 306.599 331.611 308.802 334.106 310.715C336.591 312.518 338.886 314.568 340.956 316.836C344.218 320.38 347.081 324.271 349.493 328.441L355.772 337.261L355.817 337.331L356.81 338.715L357.306 339.39L354.695 345.267C354.968 345.699 355.122 345.952 355.122 345.952L358.041 339.39L357.53 338.705Z" fill="black"/>
<path opacity="0.1" d="M296.019 339.867L292.127 349.104L288.97 345.699L287.67 342.969L291.403 345.451C295.071 343.158 293.656 337.296 293.487 336.641C293.752 336.774 294.032 336.876 294.321 336.943L296.019 339.867Z" fill="black"/>
<path d="M293.712 336.829C293.712 336.829 295.533 343.282 291.647 345.704L286.539 342.299C286.539 342.299 285.546 344.731 288.728 347.893C289.912 348.954 290.835 350.273 291.425 351.749C292.016 353.225 292.258 354.816 292.133 356.401C292.133 356.401 292.63 362.233 295.538 360.779C295.538 360.779 300.159 359.786 299.916 351.785C299.916 351.785 298.075 345.109 300.219 342.284C300.278 342.208 300.34 342.134 300.403 342.061C302.835 339.386 299.673 335.256 299.673 335.256C299.673 335.256 293.955 332.943 293.712 336.829Z" fill="#535461"/>
<path opacity="0.1" d="M299.425 270.828C296.75 270.828 296.993 274.476 293.593 275.206C290.193 275.936 278.275 281.038 274.632 278.854C270.989 276.67 268.557 272.049 268.557 272.049V271.553C274.632 274.714 282.172 271.553 282.172 271.553C287.543 272.585 296.78 265.542 299.43 263.402V263.526C299.43 263.526 302.096 270.828 299.425 270.828Z" fill="black"/>
<path opacity="0.1" d="M269.276 316.528L282.181 315.069L281.536 318.717C277.54 320.573 271.788 321.144 268.998 321.318L269.276 316.528Z" fill="black"/>
<path opacity="0.1" d="M323.502 297.78C322.892 302.248 317.898 306.084 314.503 308.204L310.602 303.652L320.569 293.685L323.502 297.78Z" fill="black"/>
<path d="M282.162 272.039C282.162 272.039 274.627 275.201 268.547 272.039L267.331 288.573C267.331 288.573 267.574 295.864 266.601 299.989C265.628 304.114 267.331 320.896 267.331 320.896C267.331 320.896 282.405 320.653 285.319 315.064C285.319 315.064 291.638 302.421 290.426 298.048L303.555 300.967L311.338 309.465C311.338 309.465 324.71 303.146 323.494 295.363L305.501 274.223L300.155 263.303C300.155 263.303 288.486 273.255 282.162 272.039Z" fill="#E53E3E"/>
<path opacity="0.1" d="M311.338 309.465L303.56 300.957L290.426 298.048C290.456 298.158 290.481 298.272 290.505 298.391C290.546 298.624 290.569 298.859 290.575 299.096C290.778 304.154 285.323 315.069 285.323 315.069C282.405 320.663 267.335 320.901 267.335 320.901C267.335 320.901 265.608 304.134 266.601 299.999C267.593 295.864 267.33 288.583 267.33 288.583L268.502 272.664L268.546 272.054C270.244 272.908 272.107 273.383 274.006 273.444C276.697 273.521 279.377 273.085 281.904 272.158L282.162 272.054C282.304 272.08 282.449 272.102 282.598 272.118C287.82 272.694 296.194 266.47 299.107 264.152C299.768 263.626 300.15 263.303 300.15 263.303L305.501 274.223L323.489 295.373C323.528 295.616 323.551 295.862 323.558 296.108C323.871 303.553 311.338 309.465 311.338 309.465Z" fill="black"/>
<path opacity="0.3" d="M295.33 214.426C289.915 224.209 281.929 218.794 279.715 216.997L280.459 216.953C282.559 218.596 285.423 218.834 286.843 218.834C287.341 218.836 287.839 218.872 288.332 218.943C292.437 219.519 293.687 214.064 293.687 214.064L295.33 214.426Z" fill="white"/>
<path d="M356.441 337.261C357.274 337.214 358.104 337.385 358.85 337.758C359.596 338.131 360.232 338.692 360.695 339.385C360.695 339.385 367.009 344.706 370.409 345.203C370.409 345.203 380.619 349.581 377.7 355.656C374.782 361.732 367.733 356.153 367.733 356.153C367.733 356.153 360.199 349.347 357.766 349.834C357.766 349.834 351.08 345.823 352.306 341.932C352.306 341.932 355.235 344.91 356.118 342.622C356.423 341.776 356.774 340.947 357.171 340.14C357.642 339.207 357.886 337.991 356.441 337.261Z" fill="#535461"/>
<path opacity="0.1" d="M280.562 272.098C278.021 272.838 272.908 273.826 268.55 271.557L268.471 272.644C273.757 274.565 279.604 272.471 280.562 272.098Z" fill="black"/>
<path opacity="0.1" d="M286.086 271.245C284.82 271.655 283.477 271.768 282.16 271.577C282.16 271.577 281.624 271.801 280.73 272.074C282.284 272.337 284.15 271.954 286.086 271.245Z" fill="black"/>
<path opacity="0.1" d="M323.563 296.112C323.33 303.325 311.338 308.993 311.338 308.993L311.169 308.809C314.49 306.988 323.017 301.662 322.034 295.378L304.041 274.223L299.107 264.132C299.768 263.606 300.15 263.283 300.15 263.283L305.501 274.203L323.489 295.353C323.53 295.604 323.555 295.858 323.563 296.112Z" fill="black"/>
<path opacity="0.1" d="M288.97 298.048C290.186 302.426 283.863 315.064 283.863 315.064C282.999 316.717 281.078 317.903 278.795 318.752C281.694 317.888 284.28 316.573 285.322 314.577C285.322 314.577 290.931 303.359 290.564 298.401L288.97 298.048Z" fill="black"/>
<path opacity="0.3" d="M284.836 234.966C281.411 234.966 278.637 238.936 278.637 243.841C278.637 248.745 281.411 252.716 284.836 252.716C288.261 252.716 291.036 248.745 291.036 243.841C291.036 238.936 288.261 234.966 284.836 234.966ZM284.836 249.067C282.821 249.067 281.183 246.729 281.183 243.841C281.183 240.952 282.816 238.614 284.836 238.614C286.856 238.614 288.49 240.952 288.49 243.841C288.49 246.729 286.852 249.067 284.836 249.067V249.067Z" fill="white"/>
<path d="M325.47 172.335C325.47 172.622 325.47 172.907 325.47 173.188C325.47 173.342 325.47 173.496 325.435 173.645C325.227 176.195 324.373 178.649 322.953 180.778C322.859 180.922 322.76 181.061 322.66 181.2C321.307 183.098 319.52 184.645 317.448 185.714C315.376 186.783 313.079 187.342 310.748 187.345C310.415 187.345 310.083 187.345 309.755 187.31C309.427 187.275 309.144 187.26 308.842 187.22C306.737 186.935 304.72 186.198 302.927 185.059C301.135 183.92 299.61 182.407 298.458 180.624C298.378 180.51 298.304 180.386 298.234 180.271V180.247C296.779 177.865 296.011 175.126 296.016 172.335C296.015 171.59 296.068 170.847 296.174 170.111L296.254 169.614C296.656 167.343 297.577 165.196 298.944 163.338C300.311 161.48 302.088 159.963 304.136 158.903L304.672 158.64C306.414 157.836 308.298 157.384 310.216 157.31C312.133 157.236 314.046 157.541 315.845 158.208C316.314 158.382 316.773 158.581 317.22 158.804V158.804C320.518 160.446 323.093 163.247 324.452 166.671C324.502 166.785 324.542 166.894 324.581 167.009C325.193 168.717 325.494 170.52 325.47 172.335V172.335Z" fill="#F88787"/>
<path opacity="0.5" d="M324.52 167.009C323.576 167.289 322.596 167.431 321.611 167.43H321.443H321.056C320.817 167.43 320.584 167.401 320.361 167.371C318.43 167.14 316.581 166.46 314.96 165.385V165.385C310.627 160.968 306.383 159.459 304.09 158.933L304.626 158.67C306.879 159.24 310.538 160.655 314.345 164.229C315.326 165.158 316.484 165.88 317.75 166.353C318.62 166.675 319.524 166.893 320.445 167.004C320.644 167.004 320.837 167.043 321.031 167.058H321.423C322.429 167.086 323.433 166.958 324.401 166.681C324.436 166.805 324.48 166.914 324.52 167.009Z" fill="white"/>
<path opacity="0.5" d="M325.445 173.188C325.445 173.342 325.445 173.496 325.41 173.645C324.141 172.833 322.784 172.167 321.365 171.659L320.992 171.525C317.61 170.389 314.115 169.617 310.569 169.222C302.23 168.16 298.07 169.153 296.09 170.096L296.169 169.599C298.314 168.656 302.538 167.798 310.618 168.825C314.163 169.221 317.656 169.984 321.042 171.103L321.414 171.237C322.825 171.74 324.176 172.394 325.445 173.188V173.188Z" fill="white"/>
<path opacity="0.5" d="M321.413 171.272C321.413 171.406 321.383 171.54 321.368 171.679C321.282 172.358 321.16 173.067 321.001 173.809C320.879 174.368 320.743 174.906 320.594 175.422C320.554 175.556 320.515 175.69 320.475 175.819C318.589 181.86 314.752 184.922 311.719 186.451C311.075 186.778 310.412 187.067 309.734 187.315L308.82 187.225C309.773 186.929 310.7 186.554 311.59 186.104C314.568 184.614 318.336 181.572 320.172 175.591C320.212 175.471 320.247 175.347 320.281 175.223C320.42 174.743 320.546 174.247 320.659 173.734C320.821 172.99 320.945 172.262 321.031 171.55C321.031 171.416 321.061 171.277 321.076 171.143C321.202 169.912 321.202 168.671 321.076 167.44C321.076 167.311 321.051 167.182 321.031 167.058C320.728 164.384 319.569 161.88 317.725 159.92C317.123 159.29 316.458 158.722 315.74 158.228C316.208 158.402 316.667 158.601 317.115 158.823V158.823C317.406 159.078 317.694 159.356 317.978 159.657C319.875 161.698 321.061 164.298 321.358 167.068C321.358 167.192 321.388 167.321 321.403 167.445C321.539 168.717 321.542 170 321.413 171.272V171.272Z" fill="white"/>
<path opacity="0.5" d="M322.913 180.782C322.818 180.926 322.719 181.065 322.62 181.204C322.203 179.398 321.535 177.658 320.634 176.037C320.587 175.957 320.529 175.883 320.461 175.819C320.361 175.728 320.249 175.653 320.128 175.595C318.217 174.647 312.509 176.236 308.265 178.529C304.999 180.296 300.725 180.609 298.387 180.629L298.164 180.276V180.251C300.398 180.251 304.786 179.983 308.091 178.196C312.062 176.062 317.969 174.226 320.242 175.218C320.363 175.271 320.478 175.336 320.585 175.412C320.741 175.523 320.872 175.665 320.972 175.829C321.832 177.388 322.484 179.054 322.913 180.782V180.782Z" fill="white"/>
<path opacity="0.1" d="M150.947 424.69H129.107V427.172H150.947V424.69Z" fill="black"/>
<path opacity="0.3" d="M90.7184 102.566L39.7617 153.924V166.085L97.5881 100.347L90.7184 102.566Z" fill="white"/>
<path opacity="0.3" d="M108.305 97.6267L39.7617 184.451V197.321L125.404 95.0754L108.305 97.6267Z" fill="white"/>
</g>
<defs>
<linearGradient id="paint0_linear" x1="140.3" y1="435.551" x2="140.3" y2="232.221" gradientUnits="userSpaceOnUse">
<stop stop-color="#808080" stop-opacity="0.25"/>
<stop offset="0.54" stop-color="#808080" stop-opacity="0.12"/>
<stop offset="1" stop-color="#808080" stop-opacity="0.1"/>
</linearGradient>
<linearGradient id="paint1_linear" x1="19845.7" y1="12734.1" x2="19845.7" y2="12238.8" gradientUnits="userSpaceOnUse">
<stop stop-color="#808080" stop-opacity="0.25"/>
<stop offset="0.54" stop-color="#808080" stop-opacity="0.12"/>
<stop offset="1" stop-color="#808080" stop-opacity="0.1"/>
</linearGradient>
<linearGradient id="paint2_linear" x1="81238.6" y1="61568.3" x2="81238.6" y2="17794.8" gradientUnits="userSpaceOnUse">
<stop stop-color="#808080" stop-opacity="0.25"/>
<stop offset="0.54" stop-color="#808080" stop-opacity="0.12"/>
<stop offset="1" stop-color="#808080" stop-opacity="0.1"/>
</linearGradient>
<linearGradient id="paint3_linear" x1="76109.3" y1="56395.4" x2="76109.3" y2="17978.3" gradientUnits="userSpaceOnUse">
<stop stop-color="#808080" stop-opacity="0.25"/>
<stop offset="0.54" stop-color="#808080" stop-opacity="0.12"/>
<stop offset="1" stop-color="#808080" stop-opacity="0.1"/>
</linearGradient>
<linearGradient id="paint4_linear" x1="15054.2" y1="15302.7" x2="15054.2" y2="11127.9" gradientUnits="userSpaceOnUse">
<stop stop-color="#808080" stop-opacity="0.25"/>
<stop offset="0.54" stop-color="#808080" stop-opacity="0.12"/>
<stop offset="1" stop-color="#808080" stop-opacity="0.1"/>
</linearGradient>
<linearGradient id="paint5_linear" x1="12521.6" y1="12443.8" x2="12521.6" y2="9566.23" gradientUnits="userSpaceOnUse">
<stop stop-color="#808080" stop-opacity="0.25"/>
<stop offset="0.54" stop-color="#808080" stop-opacity="0.12"/>
<stop offset="1" stop-color="#808080" stop-opacity="0.1"/>
</linearGradient>
<linearGradient id="paint6_linear" x1="32237.8" y1="34041.9" x2="32237.8" y2="25800.5" gradientUnits="userSpaceOnUse">
<stop stop-color="#808080" stop-opacity="0.25"/>
<stop offset="0.54" stop-color="#808080" stop-opacity="0.12"/>
<stop offset="1" stop-color="#808080" stop-opacity="0.1"/>
</linearGradient>
<linearGradient id="paint7_linear" x1="27400.7" y1="32287" x2="27400.7" y2="24881.6" gradientUnits="userSpaceOnUse">
<stop stop-color="#808080" stop-opacity="0.25"/>
<stop offset="0.54" stop-color="#808080" stop-opacity="0.12"/>
<stop offset="1" stop-color="#808080" stop-opacity="0.1"/>
</linearGradient>
<linearGradient id="paint8_linear" x1="13337.6" y1="27620.8" x2="13337.6" y2="20751.5" gradientUnits="userSpaceOnUse">
<stop stop-color="#808080" stop-opacity="0.25"/>
<stop offset="0.54" stop-color="#808080" stop-opacity="0.12"/>
<stop offset="1" stop-color="#808080" stop-opacity="0.1"/>
</linearGradient>
<linearGradient id="paint9_linear" x1="32556.9" y1="6118.96" x2="32556.9" y2="5714.8" gradientUnits="userSpaceOnUse">
<stop stop-color="#808080" stop-opacity="0.25"/>
<stop offset="0.54" stop-color="#808080" stop-opacity="0.12"/>
<stop offset="1" stop-color="#808080" stop-opacity="0.1"/>
</linearGradient>
<linearGradient id="paint10_linear" x1="32556.9" y1="6118.96" x2="32556.9" y2="5714.8" gradientUnits="userSpaceOnUse">
<stop stop-color="#808080" stop-opacity="0.25"/>
<stop offset="0.54" stop-color="#808080" stop-opacity="0.12"/>
<stop offset="1" stop-color="#808080" stop-opacity="0.1"/>
</linearGradient>
<linearGradient id="paint11_linear" x1="32556.9" y1="6074.24" x2="32556.9" y2="5670.07" gradientUnits="userSpaceOnUse">
<stop stop-color="#808080" stop-opacity="0.25"/>
<stop offset="0.54" stop-color="#808080" stop-opacity="0.12"/>
<stop offset="1" stop-color="#808080" stop-opacity="0.1"/>
</linearGradient>
<linearGradient id="paint12_linear" x1="119728" y1="133447" x2="119728" y2="55249.2" gradientUnits="userSpaceOnUse">
<stop stop-color="#808080" stop-opacity="0.25"/>
<stop offset="0.54" stop-color="#808080" stop-opacity="0.12"/>
<stop offset="1" stop-color="#808080" stop-opacity="0.1"/>
</linearGradient>
<clipPath id="clip0">
<rect width="499.56" height="390.534" fill="white" transform="translate(0.439453 55.1282)"/>
</clipPath>
</defs>
</svg>
