<svg width="500" height="500" viewBox="0 0 500 500" fill="none" xmlns="http://www.w3.org/2000/svg">
<g clip-path="url(#clip0)">
<path d="M479.145 450.243C479.145 465.419 376.405 500 249.669 500C122.933 500 20.1934 465.419 20.1934 450.243C20.1934 435.068 122.933 445.045 249.669 445.045C376.405 445.045 479.145 435.068 479.145 450.243Z" fill="#3F3D56"/>
<path opacity="0.1" d="M479.145 450.243C479.145 465.419 376.405 500 249.669 500C122.933 500 20.1934 465.419 20.1934 450.243C20.1934 435.068 122.933 445.045 249.669 445.045C376.405 445.045 479.145 435.068 479.145 450.243Z" fill="black"/>
<path d="M85.545 248.245C90.8769 248.245 95.1993 243.923 95.1993 238.591C95.1993 233.259 90.8769 228.936 85.545 228.936C80.213 228.936 75.8906 233.259 75.8906 238.591C75.8906 243.923 80.213 248.245 85.545 248.245Z" fill="#E53E3E"/>
<path d="M127.877 327.707C133.209 327.707 137.531 323.385 137.531 318.053C137.531 312.721 133.209 308.399 127.877 308.399C122.545 308.399 118.223 312.721 118.223 318.053C118.223 323.385 122.545 327.707 127.877 327.707Z" fill="#E53E3E"/>
<path d="M95.1992 307.656C100.531 307.656 104.854 303.334 104.854 298.002C104.854 292.67 100.531 288.347 95.1992 288.347C89.8673 288.347 85.5449 292.67 85.5449 298.002C85.5449 303.334 89.8673 307.656 95.1992 307.656Z" fill="#E53E3E"/>
<path d="M98.2793 435.035C98.1089 434.757 94.0903 428.047 92.6971 414.113C91.4193 401.33 92.241 379.784 103.415 349.728C124.585 292.789 98.5367 246.847 98.2706 246.39L99.5557 245.644C99.6231 245.76 106.345 257.474 110.315 276.125C115.562 300.853 113.651 326.565 104.808 350.246C83.6745 407.087 99.386 433.996 99.547 434.261L98.2793 435.035Z" fill="#CFCCE0"/>
<path d="M90.0024 243.789C87.9461 243.789 85.936 243.179 84.2262 242.037C82.5164 240.894 81.1838 239.271 80.3969 237.371C79.61 235.471 79.4041 233.381 79.8053 231.364C80.2064 229.347 81.1966 227.494 82.6507 226.04C84.1047 224.586 85.9573 223.596 87.9741 223.195C89.9909 222.794 92.0814 223 93.9812 223.787C95.881 224.573 97.5048 225.906 98.6472 227.616C99.7896 229.326 100.399 231.336 100.399 233.392C100.396 236.149 99.2999 238.791 97.3508 240.74C95.4017 242.69 92.7589 243.786 90.0024 243.789V243.789ZM90.0024 224.48C88.2399 224.48 86.5169 225.003 85.0514 225.982C83.5859 226.962 82.4436 228.353 81.7691 229.982C81.0946 231.61 80.9181 233.402 81.262 235.131C81.6059 236.859 82.4546 238.447 83.7009 239.694C84.9473 240.94 86.5352 241.789 88.2639 242.133C89.9926 242.476 91.7844 242.3 93.4128 241.625C95.0412 240.951 96.433 239.809 97.4122 238.343C98.3915 236.878 98.9141 235.155 98.9141 233.392C98.9114 231.029 97.9717 228.764 96.301 227.094C94.6303 225.423 92.3651 224.483 90.0024 224.48V224.48Z" fill="#CFCCE0"/>
<path d="M120.449 278.693C125.781 278.693 130.104 274.371 130.104 269.039C130.104 263.707 125.781 259.385 120.449 259.385C115.117 259.385 110.795 263.707 110.795 269.039C110.795 274.371 115.117 278.693 120.449 278.693Z" fill="#CFCCE0"/>
<path d="M99.6548 303.2C97.5984 303.2 95.5883 302.59 93.8785 301.448C92.1687 300.306 90.8361 298.682 90.0492 296.782C89.2623 294.882 89.0564 292.792 89.4576 290.775C89.8588 288.758 90.849 286.905 92.303 285.451C93.7571 283.997 95.6096 283.007 97.6265 282.606C99.6433 282.205 101.734 282.411 103.634 283.198C105.533 283.985 107.157 285.317 108.3 287.027C109.442 288.737 110.052 290.747 110.052 292.803C110.049 295.56 108.952 298.202 107.003 300.152C105.054 302.101 102.411 303.197 99.6548 303.2ZM99.6548 283.892C97.8922 283.892 96.1692 284.414 94.7037 285.393C93.2382 286.373 92.0959 287.765 91.4214 289.393C90.7469 291.021 90.5704 292.813 90.9143 294.542C91.2582 296.271 92.1069 297.858 93.3532 299.105C94.5996 300.351 96.1875 301.2 97.9162 301.544C99.6449 301.888 101.437 301.711 103.065 301.037C104.694 300.362 106.085 299.22 107.065 297.754C108.044 296.289 108.566 294.566 108.566 292.803C108.564 290.441 107.624 288.175 105.953 286.505C104.283 284.834 102.017 283.894 99.6548 283.892V283.892Z" fill="#CFCCE0"/>
<path d="M124.905 323.251C122.848 323.251 120.838 322.642 119.129 321.499C117.419 320.357 116.086 318.733 115.299 316.833C114.512 314.933 114.306 312.843 114.708 310.826C115.109 308.809 116.099 306.957 117.553 305.503C119.007 304.049 120.86 303.058 122.876 302.657C124.893 302.256 126.984 302.462 128.884 303.249C130.783 304.036 132.407 305.368 133.55 307.078C134.692 308.788 135.302 310.798 135.302 312.854C135.299 315.611 134.202 318.254 132.253 320.203C130.304 322.152 127.661 323.248 124.905 323.251V323.251ZM124.905 303.943C123.142 303.943 121.419 304.465 119.954 305.445C118.488 306.424 117.346 307.816 116.671 309.444C115.997 311.073 115.82 312.864 116.164 314.593C116.508 316.322 117.357 317.91 118.603 319.156C119.85 320.402 121.438 321.251 123.166 321.595C124.895 321.939 126.687 321.762 128.315 321.088C129.944 320.413 131.335 319.271 132.315 317.806C133.294 316.34 133.816 314.617 133.816 312.854C133.814 310.492 132.874 308.227 131.203 306.556C129.533 304.885 127.268 303.945 124.905 303.943Z" fill="#CFCCE0"/>
<path d="M92.2285 353.7C97.5605 353.7 101.883 349.377 101.883 344.045C101.883 338.714 97.5605 334.391 92.2285 334.391C86.8966 334.391 82.5742 338.714 82.5742 344.045C82.5742 349.377 86.8966 353.7 92.2285 353.7Z" fill="#CFCCE0"/>
<path d="M104.111 435.39C104.111 435.39 94.4568 411.626 123.42 393.802L104.111 435.39Z" fill="#CFCCE0"/>
<path d="M92.2387 434.959C92.2387 434.959 87.8449 409.688 53.8379 409.904L92.2387 434.959Z" fill="#CFCCE0"/>
<path d="M440.778 444.302H276.451C276.451 444.302 273.12 395.448 292.828 394.893C312.536 394.338 310.316 416.544 335.02 386.01C359.725 355.477 389.703 357.142 393.589 375.185C397.475 393.227 386.095 407.662 406.913 403.22C427.732 398.779 457.71 410.437 440.778 444.302Z" fill="#E53E3E"/>
<path d="M355.842 444.313L355.287 444.291C356.581 412.126 363.317 391.459 368.74 379.787C374.629 367.112 380.303 361.981 380.36 361.931L380.729 362.346C380.673 362.396 375.065 367.476 369.223 380.064C363.83 391.688 357.13 412.269 355.842 444.313Z" fill="#F2F2F2"/>
<path d="M415.314 444.379L414.781 444.224C421.199 422.197 436.311 408.29 436.463 408.152L436.836 408.563C436.685 408.7 421.686 422.509 415.314 444.379Z" fill="#F2F2F2"/>
<path d="M302.333 444.34L301.783 444.264C303.96 428.561 300.028 416.378 296.345 408.923C292.357 400.851 287.807 396.442 287.762 396.398L288.146 395.998C288.192 396.042 292.812 400.518 296.842 408.677C300.56 416.202 304.53 428.498 302.333 444.34Z" fill="#F2F2F2"/>
<path d="M463.08 445.045H258.727L258.68 444.352C258.562 442.63 255.955 402.01 269.117 387.517C272.059 384.277 275.603 382.576 279.651 382.462C288.23 382.218 293.621 385.432 297.97 388.011C306.166 392.873 311.581 396.086 331.268 371.753C352.595 345.394 375.606 339.723 388.834 342.876C397.381 344.914 403.272 350.673 404.996 358.678C406.628 366.257 406.108 373.379 405.691 379.101C405.243 385.224 404.89 390.06 407.405 392.252C409.504 394.081 413.694 394.247 420.591 392.775C434.618 389.783 454.19 392.343 464.014 405.037C469.299 411.865 473.463 424.278 463.285 444.634L463.08 445.045ZM260.121 443.559H462.161C469.745 428.172 469.982 415.174 462.839 405.946C453.827 394.302 434.92 391.237 420.9 394.228C413.408 395.827 408.943 395.563 406.429 393.372C403.355 390.693 403.732 385.53 404.209 378.993C404.62 373.366 405.131 366.362 403.544 358.99C401.945 351.568 396.458 346.221 388.49 344.321C375.683 341.266 353.315 346.865 332.422 372.687C311.929 398.017 305.755 394.356 297.213 389.288C292.81 386.678 287.812 383.716 279.693 383.947C276.065 384.049 272.877 385.586 270.216 388.515C258.387 401.541 259.832 438.068 260.121 443.559Z" fill="#CFCCE0"/>
<path d="M249.669 477.721C376.405 477.721 479.145 465.419 479.145 450.243C479.145 435.068 376.405 422.765 249.669 422.765C122.933 422.765 20.1934 435.068 20.1934 450.243C20.1934 465.419 122.933 477.721 249.669 477.721Z" fill="#3F3D56"/>
<path d="M254.714 90.7866C254.714 90.7866 243.242 86.6894 235.867 103.078C228.492 119.467 217.02 137.495 217.02 137.495L223.575 139.134C223.575 139.134 225.214 127.662 229.311 126.023L227.672 140.773C227.672 140.773 276.839 157.981 298.964 139.134L298.145 133.398C298.145 133.398 301.423 134.217 301.423 139.134L303.881 136.676C303.881 136.676 301.423 131.759 294.048 125.203C289.207 120.901 287.544 112.715 286.972 107.597C286.544 103.323 284.834 99.2785 282.067 95.9937C277.165 90.3136 268.235 84.2765 254.714 90.7866Z" fill="#2F2E41"/>
<path d="M242.613 155.043L230.73 140.191L221.819 109.742L255.98 73.353C255.98 73.353 263.406 45.1326 256.723 46.6179C250.039 48.1032 248.554 68.8971 248.554 68.8971L205.48 102.316C205.48 102.316 209.936 149.102 222.561 165.44L232.216 195.889L242.613 155.043Z" fill="#FFB9B9"/>
<path d="M275.29 155.043L287.173 140.191L296.084 109.742L261.923 73.353C261.923 73.353 254.496 45.1326 261.18 46.6179C267.864 48.1032 269.349 68.8971 269.349 68.8971L312.422 102.316C312.422 102.316 307.967 149.102 295.342 165.44L285.687 195.889L275.29 155.043Z" fill="#FFB9B9"/>
<path d="M258.951 142.419C269.615 142.419 278.26 133.774 278.26 123.11C278.26 112.446 269.615 103.801 258.951 103.801C248.287 103.801 239.643 112.446 239.643 123.11C239.643 133.774 248.287 142.419 258.951 142.419Z" fill="#FFB9B9"/>
<path d="M250.04 133.507C250.04 133.507 250.782 149.102 246.327 154.301C241.871 159.499 237.415 186.234 258.951 186.977C280.488 187.72 278.26 164.698 278.26 164.698L273.804 152.073C273.804 152.073 267.12 142.419 269.348 133.507H250.04Z" fill="#FFB9B9"/>
<path d="M229.988 306.542L245.954 311.369C245.954 311.369 258.951 303.572 258.951 310.998C258.951 318.425 254.495 328.079 255.98 334.763C257.465 341.446 260.436 357.784 255.98 357.784C251.524 357.784 242.613 328.821 242.613 328.821L227.76 320.652L229.988 306.542Z" fill="#FFB9B9"/>
<path d="M250.041 410.512L244.1 433.534C244.1 433.534 238.901 440.217 244.1 443.188C246.539 444.582 248.324 447.447 249.532 450.097C250.585 452.483 252.347 454.487 254.578 455.837C256.809 457.186 259.402 457.817 262.004 457.642C264.539 457.432 266.674 456.43 267.194 453.825C267.337 453.008 267.309 452.17 267.111 451.364C266.913 450.558 266.55 449.803 266.044 449.145C260.565 441.743 259.324 436.875 259.324 436.875L261.552 410.883L250.041 410.512Z" fill="#FFB9B9"/>
<path d="M235.659 126.539C235.659 126.539 242.215 117.525 247.951 115.886C253.687 114.247 254.507 106.053 254.507 106.053C254.507 106.053 269.257 122.442 278.271 123.261C287.285 124.081 279.09 103.595 279.09 103.595L262.701 99.4973L247.132 101.136L234.84 109.331L235.659 126.539Z" fill="#2F2E41"/>
<path d="M223.306 250.101L220.336 256.043C220.336 256.043 148.3 279.064 154.241 300.601C160.182 322.138 193.601 316.196 193.601 316.196L230.733 322.88L234.446 306.542L208.454 299.858L253.012 283.52L254.497 359.27L248.556 413.482L263.409 414.968C263.409 414.968 279.747 365.211 277.519 344.417C277.519 344.417 304.997 259.756 289.401 247.131C273.806 234.506 223.306 250.101 223.306 250.101Z" fill="#2F2E41"/>
<path d="M259.822 164.708L248.234 150.703L240.385 154.301L232.216 180.293C232.216 180.293 225.532 192.918 233.701 206.286C233.701 206.286 235.187 215.197 232.959 217.425C230.731 219.653 229.988 233.763 229.988 233.763L220.334 252.329C220.334 252.329 275.289 261.984 291.627 248.616C291.627 248.616 283.054 217.008 288.253 207.354C293.451 197.7 294.194 182.899 288.253 176.216C282.312 169.532 276.032 152.073 276.032 152.073L272.435 149.773L259.822 164.708Z" fill="#CFCCE0"/>
<path d="M303.146 53.8301H296.024V46.7075H295.376V53.8301H288.254V54.4772H295.376V61.5998H296.024V54.4772H303.146V53.8301Z" fill="#CFCCE0"/>
<path d="M235.453 38.9377H228.33V31.8152H227.683V38.9377H220.561V39.5849H227.683V46.7074H228.33V39.5849H235.453V38.9377Z" fill="#CFCCE0"/>
<path d="M267.945 7.12254H260.823V0H260.175V7.12254H253.053V7.7697H260.175V14.8922H260.823V7.7697H267.945V7.12254Z" fill="#CFCCE0"/>
</g>
<defs>
<clipPath id="clip0">
<rect width="458.952" height="500" fill="white" transform="translate(20.1934)"/>
</clipPath>
</defs>
</svg>
